<mxfile host="app.diagrams.net" agent="Mozilla/5.0 (Windows NT 10.0; Win64; x64) AppleWebKit/537.36 (KHTML, like Gecko) Chrome/128.0.0.0 Safari/537.36" version="24.7.16" pages="2">
  <diagram name="use case diagram" id="ygSrGhovxIB1e2Wyd7Y3">
    <mxGraphModel dx="471" dy="2540" grid="1" gridSize="10" guides="1" tooltips="1" connect="1" arrows="1" fold="1" page="1" pageScale="1" pageWidth="827" pageHeight="1169" math="0" shadow="0">
      <root>
        <mxCell id="0" />
        <mxCell id="1" parent="0" />
        <mxCell id="wVHqdTPh-9qHjnH0jCAA-1" value="&lt;b&gt;UCD&amp;nbsp;&lt;/b&gt;: interakcje kierowcy z przypadkami użycia" style="shape=umlFrame;whiteSpace=wrap;html=1;pointerEvents=0;recursiveResize=0;container=1;collapsible=0;width=220;height=40;" vertex="1" parent="1">
          <mxGeometry x="2041" y="-594" width="321" height="261" as="geometry" />
        </mxCell>
        <mxCell id="wVHqdTPh-9qHjnH0jCAA-2" value="" style="rounded=0;whiteSpace=wrap;html=1;dashed=1;" vertex="1" parent="wVHqdTPh-9qHjnH0jCAA-1">
          <mxGeometry x="86" y="52.5" width="221" height="195" as="geometry" />
        </mxCell>
        <mxCell id="wVHqdTPh-9qHjnH0jCAA-3" value="kierowca&lt;br&gt;" style="shape=umlActor;verticalLabelPosition=bottom;verticalAlign=top;html=1;" vertex="1" parent="wVHqdTPh-9qHjnH0jCAA-1">
          <mxGeometry x="19" y="110" width="30" height="60" as="geometry" />
        </mxCell>
        <mxCell id="wVHqdTPh-9qHjnH0jCAA-4" value="zaproponuj zmiane" style="ellipse;whiteSpace=wrap;html=1;" vertex="1" parent="wVHqdTPh-9qHjnH0jCAA-1">
          <mxGeometry x="124" y="70" width="100" height="40" as="geometry" />
        </mxCell>
        <mxCell id="wVHqdTPh-9qHjnH0jCAA-5" value="zaproponuj &lt;br&gt;urlop" style="ellipse;whiteSpace=wrap;html=1;" vertex="1" parent="wVHqdTPh-9qHjnH0jCAA-1">
          <mxGeometry x="169" y="130" width="100" height="40" as="geometry" />
        </mxCell>
        <mxCell id="wVHqdTPh-9qHjnH0jCAA-6" value="wyświetlij grafik pracy" style="ellipse;whiteSpace=wrap;html=1;" vertex="1" parent="wVHqdTPh-9qHjnH0jCAA-1">
          <mxGeometry x="114" y="185" width="110" height="40" as="geometry" />
        </mxCell>
        <mxCell id="wVHqdTPh-9qHjnH0jCAA-7" value="" style="endArrow=none;html=1;rounded=0;entryX=0.5;entryY=0.5;entryDx=0;entryDy=0;exitX=0;exitY=1;exitDx=0;exitDy=0;entryPerimeter=0;startArrow=open;startFill=0;startSize=10;" edge="1" parent="wVHqdTPh-9qHjnH0jCAA-1" source="wVHqdTPh-9qHjnH0jCAA-4" target="wVHqdTPh-9qHjnH0jCAA-3">
          <mxGeometry width="50" height="50" relative="1" as="geometry">
            <mxPoint x="929" y="440" as="sourcePoint" />
            <mxPoint x="844" y="460" as="targetPoint" />
          </mxGeometry>
        </mxCell>
        <mxCell id="wVHqdTPh-9qHjnH0jCAA-8" value="" style="endArrow=none;html=1;rounded=0;exitX=0;exitY=0.5;exitDx=0;exitDy=0;entryX=0.5;entryY=0.5;entryDx=0;entryDy=0;entryPerimeter=0;startArrow=open;startFill=0;startSize=10;" edge="1" parent="wVHqdTPh-9qHjnH0jCAA-1" source="wVHqdTPh-9qHjnH0jCAA-5" target="wVHqdTPh-9qHjnH0jCAA-3">
          <mxGeometry width="50" height="50" relative="1" as="geometry">
            <mxPoint x="149" y="114" as="sourcePoint" />
            <mxPoint x="39" y="140" as="targetPoint" />
          </mxGeometry>
        </mxCell>
        <mxCell id="wVHqdTPh-9qHjnH0jCAA-9" value="" style="endArrow=none;html=1;rounded=0;exitX=0;exitY=0;exitDx=0;exitDy=0;entryX=0.5;entryY=0.5;entryDx=0;entryDy=0;entryPerimeter=0;startArrow=open;startFill=0;startSize=10;" edge="1" parent="wVHqdTPh-9qHjnH0jCAA-1" source="wVHqdTPh-9qHjnH0jCAA-6" target="wVHqdTPh-9qHjnH0jCAA-3">
          <mxGeometry width="50" height="50" relative="1" as="geometry">
            <mxPoint x="179" y="160" as="sourcePoint" />
            <mxPoint x="44" y="150" as="targetPoint" />
          </mxGeometry>
        </mxCell>
        <mxCell id="wVHqdTPh-9qHjnH0jCAA-10" value="&lt;b style=&quot;border-color: var(--border-color);&quot;&gt;UCD&amp;nbsp;&lt;/b&gt;: interakcje dyspozytora&amp;nbsp;z przypadkami użycia" style="shape=umlFrame;whiteSpace=wrap;html=1;pointerEvents=0;recursiveResize=0;container=1;collapsible=0;width=220;height=40;" vertex="1" parent="1">
          <mxGeometry x="1541" y="-861" width="469" height="396" as="geometry" />
        </mxCell>
        <mxCell id="wVHqdTPh-9qHjnH0jCAA-11" value="" style="rounded=0;whiteSpace=wrap;html=1;dashed=1;" vertex="1" parent="wVHqdTPh-9qHjnH0jCAA-10">
          <mxGeometry x="76" y="46" width="370" height="331" as="geometry" />
        </mxCell>
        <mxCell id="wVHqdTPh-9qHjnH0jCAA-12" value="dyspozytor" style="shape=umlActor;verticalLabelPosition=bottom;verticalAlign=top;html=1;" vertex="1" parent="wVHqdTPh-9qHjnH0jCAA-10">
          <mxGeometry x="26" y="185" width="30" height="60" as="geometry" />
        </mxCell>
        <mxCell id="wVHqdTPh-9qHjnH0jCAA-13" value="zgeneruj grafik pracy" style="ellipse;whiteSpace=wrap;html=1;" vertex="1" parent="wVHqdTPh-9qHjnH0jCAA-10">
          <mxGeometry x="178" y="124" width="100" height="40" as="geometry" />
        </mxCell>
        <mxCell id="wVHqdTPh-9qHjnH0jCAA-14" value="zarządzaj grafikiem" style="ellipse;whiteSpace=wrap;html=1;" vertex="1" parent="wVHqdTPh-9qHjnH0jCAA-10">
          <mxGeometry x="241" y="185" width="100" height="40" as="geometry" />
        </mxCell>
        <mxCell id="wVHqdTPh-9qHjnH0jCAA-15" value="zarządzaj urlopem" style="ellipse;whiteSpace=wrap;html=1;" vertex="1" parent="wVHqdTPh-9qHjnH0jCAA-10">
          <mxGeometry x="153" y="267" width="100" height="40" as="geometry" />
        </mxCell>
        <mxCell id="wVHqdTPh-9qHjnH0jCAA-16" value="dodaj nowego pracownika" style="ellipse;whiteSpace=wrap;html=1;" vertex="1" parent="wVHqdTPh-9qHjnH0jCAA-10">
          <mxGeometry x="83" y="93" width="100" height="40" as="geometry" />
        </mxCell>
        <mxCell id="wVHqdTPh-9qHjnH0jCAA-17" value="zatwierdż grafik" style="ellipse;whiteSpace=wrap;html=1;" vertex="1" parent="wVHqdTPh-9qHjnH0jCAA-10">
          <mxGeometry x="274" y="84" width="110" height="40" as="geometry" />
        </mxCell>
        <mxCell id="wVHqdTPh-9qHjnH0jCAA-18" value="dodaj zmiane" style="ellipse;whiteSpace=wrap;html=1;" vertex="1" parent="wVHqdTPh-9qHjnH0jCAA-10">
          <mxGeometry x="164" y="233" width="90" height="30" as="geometry" />
        </mxCell>
        <mxCell id="wVHqdTPh-9qHjnH0jCAA-19" value="zmodyfikuj zmiane" style="ellipse;whiteSpace=wrap;html=1;" vertex="1" parent="wVHqdTPh-9qHjnH0jCAA-10">
          <mxGeometry x="246" y="249" width="90" height="30" as="geometry" />
        </mxCell>
        <mxCell id="wVHqdTPh-9qHjnH0jCAA-20" value="usuń zmiane" style="ellipse;whiteSpace=wrap;html=1;" vertex="1" parent="wVHqdTPh-9qHjnH0jCAA-10">
          <mxGeometry x="330" y="233" width="90" height="30" as="geometry" />
        </mxCell>
        <mxCell id="wVHqdTPh-9qHjnH0jCAA-21" value="zatwierdż urlop" style="ellipse;whiteSpace=wrap;html=1;" vertex="1" parent="wVHqdTPh-9qHjnH0jCAA-10">
          <mxGeometry x="112" y="329" width="100" height="30" as="geometry" />
        </mxCell>
        <mxCell id="wVHqdTPh-9qHjnH0jCAA-22" value="zaproponuj inny termin" style="ellipse;whiteSpace=wrap;html=1;" vertex="1" parent="wVHqdTPh-9qHjnH0jCAA-10">
          <mxGeometry x="223" y="319" width="100" height="40" as="geometry" />
        </mxCell>
        <mxCell id="wVHqdTPh-9qHjnH0jCAA-23" value="" style="endArrow=none;html=1;rounded=0;entryX=0.5;entryY=0.5;entryDx=0;entryDy=0;exitX=0;exitY=1;exitDx=0;exitDy=0;entryPerimeter=0;startArrow=open;startFill=0;startSize=10;" edge="1" parent="wVHqdTPh-9qHjnH0jCAA-10" source="wVHqdTPh-9qHjnH0jCAA-13" target="wVHqdTPh-9qHjnH0jCAA-12">
          <mxGeometry width="50" height="50" relative="1" as="geometry">
            <mxPoint x="338" y="165" as="sourcePoint" />
            <mxPoint x="288" y="139" as="targetPoint" />
          </mxGeometry>
        </mxCell>
        <mxCell id="wVHqdTPh-9qHjnH0jCAA-24" value="" style="endArrow=none;html=1;rounded=0;entryX=0.5;entryY=0.5;entryDx=0;entryDy=0;exitX=0;exitY=0.5;exitDx=0;exitDy=0;entryPerimeter=0;startArrow=open;startFill=0;startSize=10;" edge="1" parent="wVHqdTPh-9qHjnH0jCAA-10" source="wVHqdTPh-9qHjnH0jCAA-14" target="wVHqdTPh-9qHjnH0jCAA-12">
          <mxGeometry width="50" height="50" relative="1" as="geometry">
            <mxPoint x="338" y="193" as="sourcePoint" />
            <mxPoint x="153" y="246" as="targetPoint" />
          </mxGeometry>
        </mxCell>
        <mxCell id="wVHqdTPh-9qHjnH0jCAA-25" value="" style="endArrow=none;html=1;rounded=0;entryX=0.5;entryY=0.5;entryDx=0;entryDy=0;exitX=0;exitY=0;exitDx=0;exitDy=0;entryPerimeter=0;startArrow=open;startFill=0;startSize=10;" edge="1" parent="wVHqdTPh-9qHjnH0jCAA-10" source="wVHqdTPh-9qHjnH0jCAA-15" target="wVHqdTPh-9qHjnH0jCAA-12">
          <mxGeometry width="50" height="50" relative="1" as="geometry">
            <mxPoint x="301" y="256" as="sourcePoint" />
            <mxPoint x="153" y="246" as="targetPoint" />
          </mxGeometry>
        </mxCell>
        <mxCell id="wVHqdTPh-9qHjnH0jCAA-26" value="" style="endArrow=none;html=1;rounded=0;entryX=0.5;entryY=0.5;entryDx=0;entryDy=0;exitX=0.5;exitY=1;exitDx=0;exitDy=0;entryPerimeter=0;endFill=0;startArrow=open;startFill=0;startSize=10;" edge="1" parent="wVHqdTPh-9qHjnH0jCAA-10" source="wVHqdTPh-9qHjnH0jCAA-16" target="wVHqdTPh-9qHjnH0jCAA-12">
          <mxGeometry width="50" height="50" relative="1" as="geometry">
            <mxPoint x="210" y="335" as="sourcePoint" />
            <mxPoint x="83" y="264" as="targetPoint" />
          </mxGeometry>
        </mxCell>
        <mxCell id="wVHqdTPh-9qHjnH0jCAA-27" value="" style="endArrow=none;html=1;rounded=0;entryX=0;entryY=1;entryDx=0;entryDy=0;exitX=1;exitY=0;exitDx=0;exitDy=0;" edge="1" parent="wVHqdTPh-9qHjnH0jCAA-10" source="wVHqdTPh-9qHjnH0jCAA-13" target="wVHqdTPh-9qHjnH0jCAA-17">
          <mxGeometry width="50" height="50" relative="1" as="geometry">
            <mxPoint x="338" y="193" as="sourcePoint" />
            <mxPoint x="103" y="246" as="targetPoint" />
          </mxGeometry>
        </mxCell>
        <mxCell id="wVHqdTPh-9qHjnH0jCAA-28" value="" style="endArrow=none;html=1;rounded=0;entryX=1;entryY=0;entryDx=0;entryDy=0;exitX=0;exitY=1;exitDx=0;exitDy=0;" edge="1" parent="wVHqdTPh-9qHjnH0jCAA-10" source="wVHqdTPh-9qHjnH0jCAA-14" target="wVHqdTPh-9qHjnH0jCAA-18">
          <mxGeometry width="50" height="50" relative="1" as="geometry">
            <mxPoint x="318" y="262" as="sourcePoint" />
            <mxPoint x="103" y="246" as="targetPoint" />
          </mxGeometry>
        </mxCell>
        <mxCell id="wVHqdTPh-9qHjnH0jCAA-29" value="" style="endArrow=none;html=1;rounded=0;entryX=0.5;entryY=0;entryDx=0;entryDy=0;exitX=0.5;exitY=1;exitDx=0;exitDy=0;" edge="1" parent="wVHqdTPh-9qHjnH0jCAA-10" source="wVHqdTPh-9qHjnH0jCAA-14" target="wVHqdTPh-9qHjnH0jCAA-19">
          <mxGeometry width="50" height="50" relative="1" as="geometry">
            <mxPoint x="333" y="276" as="sourcePoint" />
            <mxPoint x="307" y="294" as="targetPoint" />
          </mxGeometry>
        </mxCell>
        <mxCell id="wVHqdTPh-9qHjnH0jCAA-30" value="" style="endArrow=none;html=1;rounded=0;entryX=0;entryY=0;entryDx=0;entryDy=0;exitX=1;exitY=1;exitDx=0;exitDy=0;" edge="1" parent="wVHqdTPh-9qHjnH0jCAA-10" source="wVHqdTPh-9qHjnH0jCAA-14" target="wVHqdTPh-9qHjnH0jCAA-20">
          <mxGeometry width="50" height="50" relative="1" as="geometry">
            <mxPoint x="368" y="282" as="sourcePoint" />
            <mxPoint x="368" y="309" as="targetPoint" />
          </mxGeometry>
        </mxCell>
        <mxCell id="wVHqdTPh-9qHjnH0jCAA-31" value="" style="endArrow=none;html=1;rounded=0;entryX=0.5;entryY=0;entryDx=0;entryDy=0;exitX=0;exitY=1;exitDx=0;exitDy=0;" edge="1" parent="wVHqdTPh-9qHjnH0jCAA-10" source="wVHqdTPh-9qHjnH0jCAA-15" target="wVHqdTPh-9qHjnH0jCAA-21">
          <mxGeometry width="50" height="50" relative="1" as="geometry">
            <mxPoint x="178" y="283" as="sourcePoint" />
            <mxPoint x="28" y="230" as="targetPoint" />
          </mxGeometry>
        </mxCell>
        <mxCell id="wVHqdTPh-9qHjnH0jCAA-32" value="" style="endArrow=none;html=1;rounded=0;entryX=0.5;entryY=0;entryDx=0;entryDy=0;exitX=1;exitY=1;exitDx=0;exitDy=0;" edge="1" parent="wVHqdTPh-9qHjnH0jCAA-10" source="wVHqdTPh-9qHjnH0jCAA-15" target="wVHqdTPh-9qHjnH0jCAA-22">
          <mxGeometry width="50" height="50" relative="1" as="geometry">
            <mxPoint x="178" y="311" as="sourcePoint" />
            <mxPoint x="143" y="339" as="targetPoint" />
          </mxGeometry>
        </mxCell>
        <mxCell id="wVHqdTPh-9qHjnH0jCAA-33" value="zmodyfikuj grafik" style="ellipse;whiteSpace=wrap;html=1;" vertex="1" parent="wVHqdTPh-9qHjnH0jCAA-10">
          <mxGeometry x="173" y="62" width="110" height="40" as="geometry" />
        </mxCell>
        <mxCell id="wVHqdTPh-9qHjnH0jCAA-34" value="" style="endArrow=none;html=1;rounded=0;entryX=0.5;entryY=0;entryDx=0;entryDy=0;exitX=0.5;exitY=1;exitDx=0;exitDy=0;" edge="1" parent="wVHqdTPh-9qHjnH0jCAA-10" source="wVHqdTPh-9qHjnH0jCAA-33" target="wVHqdTPh-9qHjnH0jCAA-13">
          <mxGeometry width="50" height="50" relative="1" as="geometry">
            <mxPoint x="121" y="125" as="sourcePoint" />
            <mxPoint x="71" y="225" as="targetPoint" />
          </mxGeometry>
        </mxCell>
        <mxCell id="wVHqdTPh-9qHjnH0jCAA-35" value="" style="endArrow=none;html=1;rounded=0;entryX=1;entryY=1;entryDx=0;entryDy=0;exitX=0.5;exitY=0;exitDx=0;exitDy=0;strokeColor=default;endFill=0;startArrow=none;startFill=0;" edge="1" parent="wVHqdTPh-9qHjnH0jCAA-10" source="wVHqdTPh-9qHjnH0jCAA-14" target="wVHqdTPh-9qHjnH0jCAA-13">
          <mxGeometry width="50" height="50" relative="1" as="geometry">
            <mxPoint x="255" y="208" as="sourcePoint" />
            <mxPoint x="305" y="158" as="targetPoint" />
          </mxGeometry>
        </mxCell>
        <mxCell id="wVHqdTPh-9qHjnH0jCAA-36" value="&lt;b style=&quot;border-color: var(--border-color);&quot;&gt;UCD&amp;nbsp;&lt;/b&gt;: interakcje księgowośći z przypadkami użycia" style="shape=umlFrame;whiteSpace=wrap;html=1;pointerEvents=0;recursiveResize=0;container=1;collapsible=0;width=220;height=40;" vertex="1" parent="1">
          <mxGeometry x="2041" y="-861" width="307" height="250" as="geometry" />
        </mxCell>
        <mxCell id="wVHqdTPh-9qHjnH0jCAA-37" value="" style="rounded=0;whiteSpace=wrap;html=1;dashed=1;" vertex="1" parent="wVHqdTPh-9qHjnH0jCAA-36">
          <mxGeometry x="83" y="61" width="214" height="178.41" as="geometry" />
        </mxCell>
        <mxCell id="wVHqdTPh-9qHjnH0jCAA-38" value="Księgowy" style="shape=umlActor;verticalLabelPosition=bottom;verticalAlign=top;html=1;" vertex="1" parent="wVHqdTPh-9qHjnH0jCAA-36">
          <mxGeometry x="30" y="110" width="30" height="60" as="geometry" />
        </mxCell>
        <mxCell id="wVHqdTPh-9qHjnH0jCAA-39" value="zgeneruj raport" style="ellipse;whiteSpace=wrap;html=1;" vertex="1" parent="wVHqdTPh-9qHjnH0jCAA-36">
          <mxGeometry x="153" y="120" width="93" height="40" as="geometry" />
        </mxCell>
        <mxCell id="wVHqdTPh-9qHjnH0jCAA-40" value="exportuj raport" style="ellipse;whiteSpace=wrap;html=1;" vertex="1" parent="wVHqdTPh-9qHjnH0jCAA-36">
          <mxGeometry x="126" y="179" width="93" height="40" as="geometry" />
        </mxCell>
        <mxCell id="wVHqdTPh-9qHjnH0jCAA-41" value="" style="endArrow=none;html=1;rounded=0;entryX=0.5;entryY=0.5;entryDx=0;entryDy=0;exitX=0;exitY=0.5;exitDx=0;exitDy=0;entryPerimeter=0;startArrow=open;startFill=0;startSize=10;" edge="1" parent="wVHqdTPh-9qHjnH0jCAA-36" source="wVHqdTPh-9qHjnH0jCAA-39" target="wVHqdTPh-9qHjnH0jCAA-38">
          <mxGeometry width="50" height="50" relative="1" as="geometry">
            <mxPoint x="-517" y="267" as="sourcePoint" />
            <mxPoint x="-715" y="257" as="targetPoint" />
          </mxGeometry>
        </mxCell>
        <mxCell id="wVHqdTPh-9qHjnH0jCAA-42" value="" style="endArrow=none;html=1;rounded=0;entryX=0.5;entryY=0.5;entryDx=0;entryDy=0;exitX=0;exitY=0.5;exitDx=0;exitDy=0;entryPerimeter=0;startArrow=open;startFill=0;startSize=10;" edge="1" parent="wVHqdTPh-9qHjnH0jCAA-36" source="wVHqdTPh-9qHjnH0jCAA-40" target="wVHqdTPh-9qHjnH0jCAA-38">
          <mxGeometry width="50" height="50" relative="1" as="geometry">
            <mxPoint x="140" y="130" as="sourcePoint" />
            <mxPoint x="55" y="150" as="targetPoint" />
            <Array as="points" />
          </mxGeometry>
        </mxCell>
        <mxCell id="wVHqdTPh-9qHjnH0jCAA-43" value="oblicz wypłatę" style="ellipse;whiteSpace=wrap;html=1;" vertex="1" parent="wVHqdTPh-9qHjnH0jCAA-36">
          <mxGeometry x="130" y="70" width="93" height="40" as="geometry" />
        </mxCell>
        <mxCell id="wVHqdTPh-9qHjnH0jCAA-44" value="" style="endArrow=none;html=1;rounded=0;entryX=0.5;entryY=0.5;entryDx=0;entryDy=0;exitX=0;exitY=0.5;exitDx=0;exitDy=0;entryPerimeter=0;startArrow=open;startFill=0;startSize=10;" edge="1" parent="wVHqdTPh-9qHjnH0jCAA-36" source="wVHqdTPh-9qHjnH0jCAA-43" target="wVHqdTPh-9qHjnH0jCAA-38">
          <mxGeometry width="50" height="50" relative="1" as="geometry">
            <mxPoint x="163" y="150" as="sourcePoint" />
            <mxPoint x="55" y="150" as="targetPoint" />
          </mxGeometry>
        </mxCell>
      </root>
    </mxGraphModel>
  </diagram>
  <diagram id="F05ZqDQ0ADMaah9CJfYS" name="timing diagram">
    <mxGraphModel dx="2856" dy="4185" grid="1" gridSize="10" guides="1" tooltips="1" connect="1" arrows="1" fold="1" page="1" pageScale="1" pageWidth="827" pageHeight="1169" math="0" shadow="0">
      <root>
        <mxCell id="0" />
        <mxCell id="1" parent="0" />
        <mxCell id="j1AMkVY8RfKDoTXHwIOU-1" value="" style="rounded=0;whiteSpace=wrap;html=1;" vertex="1" parent="1">
          <mxGeometry x="657" y="1123" width="593" height="250" as="geometry" />
        </mxCell>
        <mxCell id="j1AMkVY8RfKDoTXHwIOU-2" value="" style="rounded=0;whiteSpace=wrap;html=1;" vertex="1" parent="1">
          <mxGeometry x="657" y="1373" width="593" height="137" as="geometry" />
        </mxCell>
        <mxCell id="j1AMkVY8RfKDoTXHwIOU-3" value="" style="rounded=0;whiteSpace=wrap;html=1;" vertex="1" parent="1">
          <mxGeometry x="640" y="80" width="760" height="320" as="geometry" />
        </mxCell>
        <mxCell id="j1AMkVY8RfKDoTXHwIOU-4" value="&lt;b style=&quot;border-color: var(--border-color);&quot;&gt;TD&lt;/b&gt;: przesylania komunikatow na roznych poziomach aplikacji" style="shape=umlFrame;whiteSpace=wrap;html=1;pointerEvents=0;width=194;height=50;" vertex="1" parent="1">
          <mxGeometry x="620" y="-180" width="800" height="850" as="geometry" />
        </mxCell>
        <mxCell id="j1AMkVY8RfKDoTXHwIOU-5" value="" style="rounded=0;whiteSpace=wrap;html=1;" vertex="1" parent="1">
          <mxGeometry x="640" y="-110" width="760" height="190" as="geometry" />
        </mxCell>
        <mxCell id="j1AMkVY8RfKDoTXHwIOU-6" value="" style="rounded=0;whiteSpace=wrap;html=1;" vertex="1" parent="1">
          <mxGeometry x="640" y="400" width="760" height="250" as="geometry" />
        </mxCell>
        <mxCell id="j1AMkVY8RfKDoTXHwIOU-7" value="&lt;font style=&quot;font-size: 15px;&quot;&gt;&lt;span style=&quot;color: rgb(0, 0, 0); font-family: Helvetica; font-style: normal; font-variant-ligatures: normal; font-variant-caps: normal; font-weight: 400; letter-spacing: normal; orphans: 2; text-align: center; text-indent: 0px; text-transform: none; widows: 2; word-spacing: 0px; -webkit-text-stroke-width: 0px; background-color: rgb(251, 251, 251); text-decoration-thickness: initial; text-decoration-style: initial; text-decoration-color: initial; float: none; display: inline !important;&quot;&gt;dyspozytor&lt;/span&gt;&lt;br&gt;&lt;/font&gt;" style="text;html=1;strokeColor=none;fillColor=none;align=center;verticalAlign=middle;whiteSpace=wrap;rounded=0;rotation=270;" vertex="1" parent="1">
          <mxGeometry x="600" y="225" width="110" height="30" as="geometry" />
        </mxCell>
        <mxCell id="j1AMkVY8RfKDoTXHwIOU-8" value="&lt;font style=&quot;font-size: 15px;&quot;&gt;&lt;span style=&quot;color: rgb(0, 0, 0); font-family: Helvetica; font-style: normal; font-variant-ligatures: normal; font-variant-caps: normal; font-weight: 400; letter-spacing: normal; orphans: 2; text-align: center; text-indent: 0px; text-transform: none; widows: 2; word-spacing: 0px; -webkit-text-stroke-width: 0px; background-color: rgb(251, 251, 251); text-decoration-thickness: initial; text-decoration-style: initial; text-decoration-color: initial; float: none; display: inline !important;&quot;&gt;baza dannych&lt;/span&gt;&lt;br&gt;&lt;/font&gt;" style="text;html=1;strokeColor=none;fillColor=none;align=center;verticalAlign=middle;whiteSpace=wrap;rounded=0;rotation=270;" vertex="1" parent="1">
          <mxGeometry x="600" y="510" width="110" height="30" as="geometry" />
        </mxCell>
        <mxCell id="j1AMkVY8RfKDoTXHwIOU-9" value="&lt;font style=&quot;font-size: 15px;&quot;&gt;&lt;span style=&quot;color: rgb(0, 0, 0); font-family: Helvetica; font-style: normal; font-variant-ligatures: normal; font-variant-caps: normal; font-weight: 400; letter-spacing: normal; orphans: 2; text-align: center; text-indent: 0px; text-transform: none; widows: 2; word-spacing: 0px; -webkit-text-stroke-width: 0px; background-color: rgb(251, 251, 251); text-decoration-thickness: initial; text-decoration-style: initial; text-decoration-color: initial; float: none; display: inline !important;&quot;&gt;kierowca&lt;/span&gt;&lt;br&gt;&lt;/font&gt;" style="text;html=1;strokeColor=none;fillColor=none;align=center;verticalAlign=middle;whiteSpace=wrap;rounded=0;rotation=270;" vertex="1" parent="1">
          <mxGeometry x="600" y="-30" width="110" height="30" as="geometry" />
        </mxCell>
        <mxCell id="j1AMkVY8RfKDoTXHwIOU-10" value="nieaktywny&lt;br&gt;&lt;br&gt;&lt;br&gt;wysyła sugestie&lt;br&gt;&lt;br&gt;&lt;br&gt;otrzymuje odpowiedż" style="text;html=1;strokeColor=none;fillColor=none;align=center;verticalAlign=middle;whiteSpace=wrap;rounded=0;" vertex="1" parent="1">
          <mxGeometry x="680" y="-80" width="70" height="130" as="geometry" />
        </mxCell>
        <mxCell id="j1AMkVY8RfKDoTXHwIOU-11" value="nieaktywny&lt;br&gt;&lt;br&gt;&lt;br&gt;otrzyma dane&lt;br&gt;&lt;br&gt;&lt;br&gt;sprawdza i modyfikuje grafik&lt;br&gt;&lt;br&gt;&lt;br&gt;tworzy grafik sam albo z uzyciem systemu&lt;br&gt;&lt;br&gt;&lt;br&gt;wysyła dane do servera" style="text;html=1;strokeColor=none;fillColor=none;align=center;verticalAlign=middle;whiteSpace=wrap;rounded=0;" vertex="1" parent="1">
          <mxGeometry x="680" y="100" width="70" height="280" as="geometry" />
        </mxCell>
        <mxCell id="j1AMkVY8RfKDoTXHwIOU-12" value="nieaktywny&lt;br&gt;&lt;br&gt;&lt;br&gt;otrzymuje dane&lt;br&gt;&lt;br&gt;&lt;br&gt;przetwarza dane&lt;br&gt;&lt;br&gt;&lt;br&gt;zapiszuje dane do chmurzy" style="text;html=1;strokeColor=none;fillColor=none;align=center;verticalAlign=middle;whiteSpace=wrap;rounded=0;" vertex="1" parent="1">
          <mxGeometry x="675" y="420" width="80" height="210" as="geometry" />
        </mxCell>
        <mxCell id="j1AMkVY8RfKDoTXHwIOU-13" value="" style="endArrow=none;html=1;rounded=0;" edge="1" parent="1">
          <mxGeometry width="50" height="50" relative="1" as="geometry">
            <mxPoint x="770" y="-70" as="sourcePoint" />
            <mxPoint x="810" y="-70" as="targetPoint" />
          </mxGeometry>
        </mxCell>
        <mxCell id="j1AMkVY8RfKDoTXHwIOU-14" value="" style="endArrow=none;html=1;rounded=0;" edge="1" parent="1">
          <mxGeometry width="50" height="50" relative="1" as="geometry">
            <mxPoint x="810" y="-20" as="sourcePoint" />
            <mxPoint x="890" y="-20" as="targetPoint" />
          </mxGeometry>
        </mxCell>
        <mxCell id="j1AMkVY8RfKDoTXHwIOU-15" value="" style="endArrow=none;html=1;rounded=0;" edge="1" parent="1">
          <mxGeometry width="50" height="50" relative="1" as="geometry">
            <mxPoint x="890" y="-70" as="sourcePoint" />
            <mxPoint x="890" y="-20" as="targetPoint" />
          </mxGeometry>
        </mxCell>
        <mxCell id="j1AMkVY8RfKDoTXHwIOU-16" value="" style="endArrow=none;html=1;rounded=0;" edge="1" parent="1">
          <mxGeometry width="50" height="50" relative="1" as="geometry">
            <mxPoint x="1130" y="-70" as="sourcePoint" />
            <mxPoint x="890" y="-70" as="targetPoint" />
          </mxGeometry>
        </mxCell>
        <mxCell id="j1AMkVY8RfKDoTXHwIOU-17" value="" style="endArrow=none;html=1;rounded=0;" edge="1" parent="1">
          <mxGeometry width="50" height="50" relative="1" as="geometry">
            <mxPoint x="1130" y="-70" as="sourcePoint" />
            <mxPoint x="1130" y="40" as="targetPoint" />
          </mxGeometry>
        </mxCell>
        <mxCell id="j1AMkVY8RfKDoTXHwIOU-18" value="" style="endArrow=none;html=1;rounded=0;" edge="1" parent="1">
          <mxGeometry width="50" height="50" relative="1" as="geometry">
            <mxPoint x="1130" y="40" as="sourcePoint" />
            <mxPoint x="1230" y="40" as="targetPoint" />
          </mxGeometry>
        </mxCell>
        <mxCell id="j1AMkVY8RfKDoTXHwIOU-19" value="" style="endArrow=none;html=1;rounded=0;" edge="1" parent="1">
          <mxGeometry width="50" height="50" relative="1" as="geometry">
            <mxPoint x="1230" y="-70" as="sourcePoint" />
            <mxPoint x="1230" y="40" as="targetPoint" />
          </mxGeometry>
        </mxCell>
        <mxCell id="j1AMkVY8RfKDoTXHwIOU-20" value="" style="endArrow=none;html=1;rounded=0;" edge="1" parent="1">
          <mxGeometry width="50" height="50" relative="1" as="geometry">
            <mxPoint x="1370" y="-70" as="sourcePoint" />
            <mxPoint x="1230" y="-70" as="targetPoint" />
          </mxGeometry>
        </mxCell>
        <mxCell id="j1AMkVY8RfKDoTXHwIOU-21" value="" style="endArrow=none;html=1;rounded=0;" edge="1" parent="1">
          <mxGeometry width="50" height="50" relative="1" as="geometry">
            <mxPoint x="770" y="100" as="sourcePoint" />
            <mxPoint x="840" y="100" as="targetPoint" />
          </mxGeometry>
        </mxCell>
        <mxCell id="j1AMkVY8RfKDoTXHwIOU-22" value="" style="endArrow=none;html=1;rounded=0;" edge="1" parent="1">
          <mxGeometry width="50" height="50" relative="1" as="geometry">
            <mxPoint x="810" y="-70" as="sourcePoint" />
            <mxPoint x="810" y="-20" as="targetPoint" />
          </mxGeometry>
        </mxCell>
        <mxCell id="j1AMkVY8RfKDoTXHwIOU-23" value="" style="endArrow=none;html=1;rounded=0;" edge="1" parent="1">
          <mxGeometry width="50" height="50" relative="1" as="geometry">
            <mxPoint x="839.6599999999999" y="100" as="sourcePoint" />
            <mxPoint x="839.6599999999999" y="150" as="targetPoint" />
          </mxGeometry>
        </mxCell>
        <mxCell id="j1AMkVY8RfKDoTXHwIOU-24" value="" style="endArrow=none;html=1;rounded=0;" edge="1" parent="1">
          <mxGeometry width="50" height="50" relative="1" as="geometry">
            <mxPoint x="840" y="150" as="sourcePoint" />
            <mxPoint x="900" y="150" as="targetPoint" />
          </mxGeometry>
        </mxCell>
        <mxCell id="j1AMkVY8RfKDoTXHwIOU-25" value="" style="endArrow=none;html=1;rounded=0;" edge="1" parent="1">
          <mxGeometry width="50" height="50" relative="1" as="geometry">
            <mxPoint x="900" y="300" as="sourcePoint" />
            <mxPoint x="900" y="150" as="targetPoint" />
          </mxGeometry>
        </mxCell>
        <mxCell id="j1AMkVY8RfKDoTXHwIOU-26" value="" style="endArrow=none;html=1;rounded=0;" edge="1" parent="1">
          <mxGeometry width="50" height="50" relative="1" as="geometry">
            <mxPoint x="990" y="300" as="sourcePoint" />
            <mxPoint x="900" y="300" as="targetPoint" />
          </mxGeometry>
        </mxCell>
        <mxCell id="j1AMkVY8RfKDoTXHwIOU-27" value="" style="endArrow=none;html=1;rounded=0;" edge="1" parent="1">
          <mxGeometry width="50" height="50" relative="1" as="geometry">
            <mxPoint x="1120" y="220" as="sourcePoint" />
            <mxPoint x="1120" y="370" as="targetPoint" />
          </mxGeometry>
        </mxCell>
        <mxCell id="j1AMkVY8RfKDoTXHwIOU-28" value="" style="endArrow=none;html=1;rounded=0;" edge="1" parent="1">
          <mxGeometry width="50" height="50" relative="1" as="geometry">
            <mxPoint x="1120" y="370" as="sourcePoint" />
            <mxPoint x="1200" y="370" as="targetPoint" />
          </mxGeometry>
        </mxCell>
        <mxCell id="j1AMkVY8RfKDoTXHwIOU-29" value="" style="endArrow=none;html=1;rounded=0;" edge="1" parent="1">
          <mxGeometry width="50" height="50" relative="1" as="geometry">
            <mxPoint x="1200" y="100" as="sourcePoint" />
            <mxPoint x="1370" y="100" as="targetPoint" />
          </mxGeometry>
        </mxCell>
        <mxCell id="j1AMkVY8RfKDoTXHwIOU-30" value="" style="endArrow=none;html=1;rounded=0;" edge="1" parent="1">
          <mxGeometry width="50" height="50" relative="1" as="geometry">
            <mxPoint x="770" y="430" as="sourcePoint" />
            <mxPoint x="890" y="430" as="targetPoint" />
          </mxGeometry>
        </mxCell>
        <mxCell id="j1AMkVY8RfKDoTXHwIOU-31" value="" style="endArrow=none;html=1;rounded=0;" edge="1" parent="1">
          <mxGeometry width="50" height="50" relative="1" as="geometry">
            <mxPoint x="890" y="480" as="sourcePoint" />
            <mxPoint x="890" y="430" as="targetPoint" />
          </mxGeometry>
        </mxCell>
        <mxCell id="j1AMkVY8RfKDoTXHwIOU-32" value="" style="endArrow=none;html=1;rounded=0;" edge="1" parent="1">
          <mxGeometry width="50" height="50" relative="1" as="geometry">
            <mxPoint x="890" y="480" as="sourcePoint" />
            <mxPoint x="940" y="480" as="targetPoint" />
          </mxGeometry>
        </mxCell>
        <mxCell id="j1AMkVY8RfKDoTXHwIOU-33" value="" style="endArrow=none;html=1;rounded=0;" edge="1" parent="1">
          <mxGeometry width="50" height="50" relative="1" as="geometry">
            <mxPoint x="940" y="480" as="sourcePoint" />
            <mxPoint x="940" y="540" as="targetPoint" />
          </mxGeometry>
        </mxCell>
        <mxCell id="j1AMkVY8RfKDoTXHwIOU-34" value="" style="endArrow=none;html=1;rounded=0;" edge="1" parent="1">
          <mxGeometry width="50" height="50" relative="1" as="geometry">
            <mxPoint x="940" y="540" as="sourcePoint" />
            <mxPoint x="990" y="540" as="targetPoint" />
          </mxGeometry>
        </mxCell>
        <mxCell id="j1AMkVY8RfKDoTXHwIOU-35" value="" style="endArrow=none;html=1;rounded=0;" edge="1" parent="1">
          <mxGeometry width="50" height="50" relative="1" as="geometry">
            <mxPoint x="990" y="600" as="sourcePoint" />
            <mxPoint x="990" y="540" as="targetPoint" />
          </mxGeometry>
        </mxCell>
        <mxCell id="j1AMkVY8RfKDoTXHwIOU-36" value="" style="endArrow=none;html=1;rounded=0;" edge="1" parent="1">
          <mxGeometry width="50" height="50" relative="1" as="geometry">
            <mxPoint x="1040" y="600" as="sourcePoint" />
            <mxPoint x="990" y="600" as="targetPoint" />
          </mxGeometry>
        </mxCell>
        <mxCell id="j1AMkVY8RfKDoTXHwIOU-37" value="" style="endArrow=none;html=1;rounded=0;" edge="1" parent="1">
          <mxGeometry width="50" height="50" relative="1" as="geometry">
            <mxPoint x="1370" y="430" as="sourcePoint" />
            <mxPoint x="1180" y="430" as="targetPoint" />
          </mxGeometry>
        </mxCell>
        <mxCell id="j1AMkVY8RfKDoTXHwIOU-38" value="" style="group" vertex="1" connectable="0" parent="1">
          <mxGeometry x="810" y="-40" width="80" height="20" as="geometry" />
        </mxCell>
        <mxCell id="j1AMkVY8RfKDoTXHwIOU-39" value="" style="endArrow=none;html=1;rounded=0;" edge="1" parent="j1AMkVY8RfKDoTXHwIOU-38">
          <mxGeometry width="50" height="50" relative="1" as="geometry">
            <mxPoint y="20" as="sourcePoint" />
            <mxPoint as="targetPoint" />
          </mxGeometry>
        </mxCell>
        <mxCell id="j1AMkVY8RfKDoTXHwIOU-40" value="" style="endArrow=classic;startArrow=classic;html=1;rounded=0;" edge="1" parent="j1AMkVY8RfKDoTXHwIOU-38">
          <mxGeometry width="50" height="50" relative="1" as="geometry">
            <mxPoint y="10" as="sourcePoint" />
            <mxPoint x="80" y="10" as="targetPoint" />
          </mxGeometry>
        </mxCell>
        <mxCell id="j1AMkVY8RfKDoTXHwIOU-41" value="{20..100ms}" style="edgeLabel;html=1;align=center;verticalAlign=middle;resizable=0;points=[];" vertex="1" connectable="0" parent="j1AMkVY8RfKDoTXHwIOU-40">
          <mxGeometry x="-0.2654" y="-1" relative="1" as="geometry">
            <mxPoint x="11" y="-1" as="offset" />
          </mxGeometry>
        </mxCell>
        <mxCell id="j1AMkVY8RfKDoTXHwIOU-42" value="" style="endArrow=none;html=1;rounded=0;" edge="1" parent="j1AMkVY8RfKDoTXHwIOU-38">
          <mxGeometry width="50" height="50" relative="1" as="geometry">
            <mxPoint x="80" y="20" as="sourcePoint" />
            <mxPoint x="80" as="targetPoint" />
          </mxGeometry>
        </mxCell>
        <mxCell id="j1AMkVY8RfKDoTXHwIOU-43" value="" style="group" vertex="1" connectable="0" parent="1">
          <mxGeometry x="1130" y="20" width="100" height="20" as="geometry" />
        </mxCell>
        <mxCell id="j1AMkVY8RfKDoTXHwIOU-44" value="" style="endArrow=none;html=1;rounded=0;" edge="1" parent="j1AMkVY8RfKDoTXHwIOU-43">
          <mxGeometry width="50" height="50" relative="1" as="geometry">
            <mxPoint y="20" as="sourcePoint" />
            <mxPoint as="targetPoint" />
          </mxGeometry>
        </mxCell>
        <mxCell id="j1AMkVY8RfKDoTXHwIOU-45" value="" style="endArrow=classic;startArrow=classic;html=1;rounded=0;" edge="1" parent="j1AMkVY8RfKDoTXHwIOU-43">
          <mxGeometry width="50" height="50" relative="1" as="geometry">
            <mxPoint y="10" as="sourcePoint" />
            <mxPoint x="100" y="10" as="targetPoint" />
          </mxGeometry>
        </mxCell>
        <mxCell id="j1AMkVY8RfKDoTXHwIOU-46" value="{20..50ms}" style="edgeLabel;html=1;align=center;verticalAlign=middle;resizable=0;points=[];" vertex="1" connectable="0" parent="j1AMkVY8RfKDoTXHwIOU-45">
          <mxGeometry x="-0.2654" y="-1" relative="1" as="geometry">
            <mxPoint x="13" y="-1" as="offset" />
          </mxGeometry>
        </mxCell>
        <mxCell id="j1AMkVY8RfKDoTXHwIOU-47" value="" style="endArrow=none;html=1;rounded=0;" edge="1" parent="j1AMkVY8RfKDoTXHwIOU-43">
          <mxGeometry width="50" height="50" relative="1" as="geometry">
            <mxPoint x="100" y="20" as="sourcePoint" />
            <mxPoint x="100" as="targetPoint" />
          </mxGeometry>
        </mxCell>
        <mxCell id="j1AMkVY8RfKDoTXHwIOU-48" value="" style="group" vertex="1" connectable="0" parent="1">
          <mxGeometry x="900" y="280" width="90" height="20" as="geometry" />
        </mxCell>
        <mxCell id="j1AMkVY8RfKDoTXHwIOU-49" value="" style="endArrow=none;html=1;rounded=0;" edge="1" parent="j1AMkVY8RfKDoTXHwIOU-48">
          <mxGeometry width="50" height="50" relative="1" as="geometry">
            <mxPoint y="20" as="sourcePoint" />
            <mxPoint as="targetPoint" />
          </mxGeometry>
        </mxCell>
        <mxCell id="j1AMkVY8RfKDoTXHwIOU-50" value="" style="endArrow=classic;startArrow=classic;html=1;rounded=0;" edge="1" parent="j1AMkVY8RfKDoTXHwIOU-48">
          <mxGeometry width="50" height="50" relative="1" as="geometry">
            <mxPoint y="10" as="sourcePoint" />
            <mxPoint x="90" y="10" as="targetPoint" />
          </mxGeometry>
        </mxCell>
        <mxCell id="j1AMkVY8RfKDoTXHwIOU-51" value="{t+400..600ms}" style="edgeLabel;html=1;align=center;verticalAlign=middle;resizable=0;points=[];" vertex="1" connectable="0" parent="j1AMkVY8RfKDoTXHwIOU-50">
          <mxGeometry x="-0.2654" y="-1" relative="1" as="geometry">
            <mxPoint x="12" y="-1" as="offset" />
          </mxGeometry>
        </mxCell>
        <mxCell id="j1AMkVY8RfKDoTXHwIOU-52" value="" style="endArrow=none;html=1;rounded=0;" edge="1" parent="j1AMkVY8RfKDoTXHwIOU-48">
          <mxGeometry width="50" height="50" relative="1" as="geometry">
            <mxPoint x="90" y="20" as="sourcePoint" />
            <mxPoint x="90" as="targetPoint" />
          </mxGeometry>
        </mxCell>
        <mxCell id="j1AMkVY8RfKDoTXHwIOU-53" value="" style="group" vertex="1" connectable="0" parent="1">
          <mxGeometry x="840" y="130" width="60" height="20" as="geometry" />
        </mxCell>
        <mxCell id="j1AMkVY8RfKDoTXHwIOU-54" value="" style="endArrow=none;html=1;rounded=0;" edge="1" parent="j1AMkVY8RfKDoTXHwIOU-53">
          <mxGeometry width="50" height="50" relative="1" as="geometry">
            <mxPoint y="20" as="sourcePoint" />
            <mxPoint as="targetPoint" />
          </mxGeometry>
        </mxCell>
        <mxCell id="j1AMkVY8RfKDoTXHwIOU-55" value="" style="endArrow=classic;startArrow=classic;html=1;rounded=0;" edge="1" parent="j1AMkVY8RfKDoTXHwIOU-53">
          <mxGeometry width="50" height="50" relative="1" as="geometry">
            <mxPoint y="10" as="sourcePoint" />
            <mxPoint x="60" y="10" as="targetPoint" />
          </mxGeometry>
        </mxCell>
        <mxCell id="j1AMkVY8RfKDoTXHwIOU-56" value="{50ms}" style="edgeLabel;html=1;align=center;verticalAlign=middle;resizable=0;points=[];" vertex="1" connectable="0" parent="j1AMkVY8RfKDoTXHwIOU-55">
          <mxGeometry x="-0.2654" y="-1" relative="1" as="geometry">
            <mxPoint x="8" y="-1" as="offset" />
          </mxGeometry>
        </mxCell>
        <mxCell id="j1AMkVY8RfKDoTXHwIOU-57" value="" style="endArrow=none;html=1;rounded=0;" edge="1" parent="j1AMkVY8RfKDoTXHwIOU-53">
          <mxGeometry width="50" height="50" relative="1" as="geometry">
            <mxPoint x="60" y="20" as="sourcePoint" />
            <mxPoint x="60" as="targetPoint" />
          </mxGeometry>
        </mxCell>
        <mxCell id="j1AMkVY8RfKDoTXHwIOU-58" value="" style="group" vertex="1" connectable="0" parent="1">
          <mxGeometry x="1120" y="350" width="80" height="20" as="geometry" />
        </mxCell>
        <mxCell id="j1AMkVY8RfKDoTXHwIOU-59" value="" style="endArrow=none;html=1;rounded=0;" edge="1" parent="j1AMkVY8RfKDoTXHwIOU-58">
          <mxGeometry width="50" height="50" relative="1" as="geometry">
            <mxPoint y="20" as="sourcePoint" />
            <mxPoint as="targetPoint" />
          </mxGeometry>
        </mxCell>
        <mxCell id="j1AMkVY8RfKDoTXHwIOU-60" value="" style="endArrow=classic;startArrow=classic;html=1;rounded=0;" edge="1" parent="j1AMkVY8RfKDoTXHwIOU-58">
          <mxGeometry width="50" height="50" relative="1" as="geometry">
            <mxPoint y="10" as="sourcePoint" />
            <mxPoint x="80" y="10" as="targetPoint" />
          </mxGeometry>
        </mxCell>
        <mxCell id="j1AMkVY8RfKDoTXHwIOU-61" value="{100..150ms}" style="edgeLabel;html=1;align=center;verticalAlign=middle;resizable=0;points=[];" vertex="1" connectable="0" parent="j1AMkVY8RfKDoTXHwIOU-60">
          <mxGeometry x="-0.2654" y="-1" relative="1" as="geometry">
            <mxPoint x="10" y="-1" as="offset" />
          </mxGeometry>
        </mxCell>
        <mxCell id="j1AMkVY8RfKDoTXHwIOU-62" value="" style="endArrow=none;html=1;rounded=0;" edge="1" parent="j1AMkVY8RfKDoTXHwIOU-58">
          <mxGeometry width="50" height="50" relative="1" as="geometry">
            <mxPoint x="80" y="20" as="sourcePoint" />
            <mxPoint x="80" as="targetPoint" />
          </mxGeometry>
        </mxCell>
        <mxCell id="j1AMkVY8RfKDoTXHwIOU-63" value="" style="group" vertex="1" connectable="0" parent="1">
          <mxGeometry x="990" y="200" width="130" height="20" as="geometry" />
        </mxCell>
        <mxCell id="j1AMkVY8RfKDoTXHwIOU-64" value="" style="endArrow=none;html=1;rounded=0;" edge="1" parent="j1AMkVY8RfKDoTXHwIOU-63">
          <mxGeometry width="50" height="50" relative="1" as="geometry">
            <mxPoint y="20" as="sourcePoint" />
            <mxPoint as="targetPoint" />
          </mxGeometry>
        </mxCell>
        <mxCell id="j1AMkVY8RfKDoTXHwIOU-65" value="" style="endArrow=classic;startArrow=classic;html=1;rounded=0;" edge="1" parent="j1AMkVY8RfKDoTXHwIOU-63">
          <mxGeometry width="50" height="50" relative="1" as="geometry">
            <mxPoint y="10" as="sourcePoint" />
            <mxPoint x="129.99999999999997" y="10" as="targetPoint" />
          </mxGeometry>
        </mxCell>
        <mxCell id="j1AMkVY8RfKDoTXHwIOU-66" value="{t+300..350ms}" style="edgeLabel;html=1;align=center;verticalAlign=middle;resizable=0;points=[];" vertex="1" connectable="0" parent="j1AMkVY8RfKDoTXHwIOU-65">
          <mxGeometry x="-0.2654" y="-1" relative="1" as="geometry">
            <mxPoint x="17" y="-1" as="offset" />
          </mxGeometry>
        </mxCell>
        <mxCell id="j1AMkVY8RfKDoTXHwIOU-67" value="" style="endArrow=none;html=1;rounded=0;" edge="1" parent="j1AMkVY8RfKDoTXHwIOU-63">
          <mxGeometry width="50" height="50" relative="1" as="geometry">
            <mxPoint x="129.99999999999997" y="20" as="sourcePoint" />
            <mxPoint x="129.99999999999997" as="targetPoint" />
          </mxGeometry>
        </mxCell>
        <mxCell id="j1AMkVY8RfKDoTXHwIOU-68" value="" style="group" vertex="1" connectable="0" parent="1">
          <mxGeometry x="890" y="460" width="50" height="20" as="geometry" />
        </mxCell>
        <mxCell id="j1AMkVY8RfKDoTXHwIOU-69" value="" style="endArrow=none;html=1;rounded=0;" edge="1" parent="j1AMkVY8RfKDoTXHwIOU-68">
          <mxGeometry width="50" height="50" relative="1" as="geometry">
            <mxPoint y="20" as="sourcePoint" />
            <mxPoint as="targetPoint" />
          </mxGeometry>
        </mxCell>
        <mxCell id="j1AMkVY8RfKDoTXHwIOU-70" value="" style="endArrow=classic;startArrow=classic;html=1;rounded=0;" edge="1" parent="j1AMkVY8RfKDoTXHwIOU-68">
          <mxGeometry width="50" height="50" relative="1" as="geometry">
            <mxPoint y="10" as="sourcePoint" />
            <mxPoint x="50" y="10" as="targetPoint" />
          </mxGeometry>
        </mxCell>
        <mxCell id="j1AMkVY8RfKDoTXHwIOU-71" value="{50ms}" style="edgeLabel;html=1;align=center;verticalAlign=middle;resizable=0;points=[];" vertex="1" connectable="0" parent="j1AMkVY8RfKDoTXHwIOU-70">
          <mxGeometry x="-0.2654" y="-1" relative="1" as="geometry">
            <mxPoint x="6" y="-1" as="offset" />
          </mxGeometry>
        </mxCell>
        <mxCell id="j1AMkVY8RfKDoTXHwIOU-72" value="" style="endArrow=none;html=1;rounded=0;" edge="1" parent="j1AMkVY8RfKDoTXHwIOU-68">
          <mxGeometry width="50" height="50" relative="1" as="geometry">
            <mxPoint x="50" y="20" as="sourcePoint" />
            <mxPoint x="50" as="targetPoint" />
          </mxGeometry>
        </mxCell>
        <mxCell id="j1AMkVY8RfKDoTXHwIOU-73" value="" style="group" vertex="1" connectable="0" parent="1">
          <mxGeometry x="940" y="520" width="50" height="20" as="geometry" />
        </mxCell>
        <mxCell id="j1AMkVY8RfKDoTXHwIOU-74" value="" style="endArrow=none;html=1;rounded=0;" edge="1" parent="j1AMkVY8RfKDoTXHwIOU-73">
          <mxGeometry width="50" height="50" relative="1" as="geometry">
            <mxPoint y="20" as="sourcePoint" />
            <mxPoint as="targetPoint" />
          </mxGeometry>
        </mxCell>
        <mxCell id="j1AMkVY8RfKDoTXHwIOU-75" value="" style="endArrow=classic;startArrow=classic;html=1;rounded=0;" edge="1" parent="j1AMkVY8RfKDoTXHwIOU-73">
          <mxGeometry width="50" height="50" relative="1" as="geometry">
            <mxPoint y="10" as="sourcePoint" />
            <mxPoint x="50" y="10" as="targetPoint" />
          </mxGeometry>
        </mxCell>
        <mxCell id="j1AMkVY8RfKDoTXHwIOU-76" value="{150ms}" style="edgeLabel;html=1;align=center;verticalAlign=middle;resizable=0;points=[];" vertex="1" connectable="0" parent="j1AMkVY8RfKDoTXHwIOU-75">
          <mxGeometry x="-0.2654" y="-1" relative="1" as="geometry">
            <mxPoint x="6" y="-1" as="offset" />
          </mxGeometry>
        </mxCell>
        <mxCell id="j1AMkVY8RfKDoTXHwIOU-77" value="" style="endArrow=none;html=1;rounded=0;" edge="1" parent="j1AMkVY8RfKDoTXHwIOU-73">
          <mxGeometry width="50" height="50" relative="1" as="geometry">
            <mxPoint x="50" y="20" as="sourcePoint" />
            <mxPoint x="50" as="targetPoint" />
          </mxGeometry>
        </mxCell>
        <mxCell id="j1AMkVY8RfKDoTXHwIOU-78" value="" style="group" vertex="1" connectable="0" parent="1">
          <mxGeometry x="990" y="580" width="50" height="20" as="geometry" />
        </mxCell>
        <mxCell id="j1AMkVY8RfKDoTXHwIOU-79" value="" style="endArrow=none;html=1;rounded=0;" edge="1" parent="j1AMkVY8RfKDoTXHwIOU-78">
          <mxGeometry width="50" height="50" relative="1" as="geometry">
            <mxPoint y="20" as="sourcePoint" />
            <mxPoint as="targetPoint" />
          </mxGeometry>
        </mxCell>
        <mxCell id="j1AMkVY8RfKDoTXHwIOU-80" value="" style="endArrow=classic;startArrow=classic;html=1;rounded=0;" edge="1" parent="j1AMkVY8RfKDoTXHwIOU-78">
          <mxGeometry width="50" height="50" relative="1" as="geometry">
            <mxPoint y="10" as="sourcePoint" />
            <mxPoint x="50" y="10" as="targetPoint" />
          </mxGeometry>
        </mxCell>
        <mxCell id="j1AMkVY8RfKDoTXHwIOU-81" value="{100ms}" style="edgeLabel;html=1;align=center;verticalAlign=middle;resizable=0;points=[];" vertex="1" connectable="0" parent="j1AMkVY8RfKDoTXHwIOU-80">
          <mxGeometry x="-0.2654" y="-1" relative="1" as="geometry">
            <mxPoint x="6" y="-1" as="offset" />
          </mxGeometry>
        </mxCell>
        <mxCell id="j1AMkVY8RfKDoTXHwIOU-82" value="" style="endArrow=none;html=1;rounded=0;" edge="1" parent="j1AMkVY8RfKDoTXHwIOU-78">
          <mxGeometry width="50" height="50" relative="1" as="geometry">
            <mxPoint x="50" y="20" as="sourcePoint" />
            <mxPoint x="50" as="targetPoint" />
          </mxGeometry>
        </mxCell>
        <mxCell id="j1AMkVY8RfKDoTXHwIOU-83" value="" style="endArrow=none;html=1;rounded=0;" edge="1" parent="1">
          <mxGeometry width="50" height="50" relative="1" as="geometry">
            <mxPoint x="990" y="220" as="sourcePoint" />
            <mxPoint x="990" y="300" as="targetPoint" />
          </mxGeometry>
        </mxCell>
        <mxCell id="j1AMkVY8RfKDoTXHwIOU-84" value="" style="endArrow=none;html=1;rounded=0;" edge="1" parent="1">
          <mxGeometry width="50" height="50" relative="1" as="geometry">
            <mxPoint x="1120" y="220" as="sourcePoint" />
            <mxPoint x="990" y="220" as="targetPoint" />
          </mxGeometry>
        </mxCell>
        <mxCell id="j1AMkVY8RfKDoTXHwIOU-85" value="" style="endArrow=none;html=1;rounded=0;" edge="1" parent="1">
          <mxGeometry width="50" height="50" relative="1" as="geometry">
            <mxPoint x="1040" y="430" as="sourcePoint" />
            <mxPoint x="1040" y="600" as="targetPoint" />
          </mxGeometry>
        </mxCell>
        <mxCell id="j1AMkVY8RfKDoTXHwIOU-86" value="" style="endArrow=none;html=1;rounded=0;" edge="1" parent="1">
          <mxGeometry width="50" height="50" relative="1" as="geometry">
            <mxPoint x="1040" y="430" as="sourcePoint" />
            <mxPoint x="1180" y="430" as="targetPoint" />
          </mxGeometry>
        </mxCell>
        <mxCell id="j1AMkVY8RfKDoTXHwIOU-87" value="&lt;b style=&quot;border-color: var(--border-color);&quot;&gt;TD&lt;/b&gt;: proces wysylania grafiku pracy" style="shape=umlFrame;whiteSpace=wrap;html=1;pointerEvents=0;width=190;height=50;" vertex="1" parent="1">
          <mxGeometry x="637" y="1053" width="633" height="477" as="geometry" />
        </mxCell>
        <mxCell id="j1AMkVY8RfKDoTXHwIOU-88" value="&lt;font style=&quot;font-size: 15px;&quot;&gt;&lt;span style=&quot;color: rgb(0, 0, 0); font-family: Helvetica; font-style: normal; font-variant-ligatures: normal; font-variant-caps: normal; font-weight: 400; letter-spacing: normal; orphans: 2; text-align: center; text-indent: 0px; text-transform: none; widows: 2; word-spacing: 0px; -webkit-text-stroke-width: 0px; background-color: rgb(251, 251, 251); text-decoration-thickness: initial; text-decoration-style: initial; text-decoration-color: initial; float: none; display: inline !important;&quot;&gt;kierowca&lt;/span&gt;&lt;br&gt;&lt;/font&gt;" style="text;html=1;strokeColor=none;fillColor=none;align=center;verticalAlign=middle;whiteSpace=wrap;rounded=0;rotation=270;" vertex="1" parent="1">
          <mxGeometry x="627" y="1418" width="110" height="30" as="geometry" />
        </mxCell>
        <mxCell id="j1AMkVY8RfKDoTXHwIOU-89" value="&lt;font style=&quot;font-size: 15px;&quot;&gt;&lt;span style=&quot;color: rgb(0, 0, 0); font-family: Helvetica; font-style: normal; font-variant-ligatures: normal; font-variant-caps: normal; font-weight: 400; letter-spacing: normal; orphans: 2; text-align: center; text-indent: 0px; text-transform: none; widows: 2; word-spacing: 0px; -webkit-text-stroke-width: 0px; background-color: rgb(251, 251, 251); text-decoration-thickness: initial; text-decoration-style: initial; text-decoration-color: initial; float: none; display: inline !important;&quot;&gt;baza dannych&lt;/span&gt;&lt;br&gt;&lt;/font&gt;" style="text;html=1;strokeColor=none;fillColor=none;align=center;verticalAlign=middle;whiteSpace=wrap;rounded=0;rotation=270;" vertex="1" parent="1">
          <mxGeometry x="627" y="1233" width="110" height="30" as="geometry" />
        </mxCell>
        <mxCell id="j1AMkVY8RfKDoTXHwIOU-90" value="" style="endArrow=none;html=1;rounded=0;" edge="1" parent="1">
          <mxGeometry width="50" height="50" relative="1" as="geometry">
            <mxPoint x="797" y="1153" as="sourcePoint" />
            <mxPoint x="917" y="1153" as="targetPoint" />
          </mxGeometry>
        </mxCell>
        <mxCell id="j1AMkVY8RfKDoTXHwIOU-91" value="" style="endArrow=none;html=1;rounded=0;" edge="1" parent="1">
          <mxGeometry width="50" height="50" relative="1" as="geometry">
            <mxPoint x="917" y="1213" as="sourcePoint" />
            <mxPoint x="917" y="1153" as="targetPoint" />
          </mxGeometry>
        </mxCell>
        <mxCell id="j1AMkVY8RfKDoTXHwIOU-92" value="" style="endArrow=none;html=1;rounded=0;" edge="1" parent="1">
          <mxGeometry width="50" height="50" relative="1" as="geometry">
            <mxPoint x="917" y="1213" as="sourcePoint" />
            <mxPoint x="967" y="1213" as="targetPoint" />
          </mxGeometry>
        </mxCell>
        <mxCell id="j1AMkVY8RfKDoTXHwIOU-93" value="" style="endArrow=none;html=1;rounded=0;" edge="1" parent="1">
          <mxGeometry width="50" height="50" relative="1" as="geometry">
            <mxPoint x="967" y="1283" as="sourcePoint" />
            <mxPoint x="1047" y="1283" as="targetPoint" />
          </mxGeometry>
        </mxCell>
        <mxCell id="j1AMkVY8RfKDoTXHwIOU-94" value="" style="endArrow=none;html=1;rounded=0;" edge="1" parent="1">
          <mxGeometry width="50" height="50" relative="1" as="geometry">
            <mxPoint x="1047" y="1343" as="sourcePoint" />
            <mxPoint x="1047" y="1283" as="targetPoint" />
          </mxGeometry>
        </mxCell>
        <mxCell id="j1AMkVY8RfKDoTXHwIOU-95" value="" style="group" vertex="1" connectable="0" parent="1">
          <mxGeometry x="917" y="1193" width="50" height="20" as="geometry" />
        </mxCell>
        <mxCell id="j1AMkVY8RfKDoTXHwIOU-96" value="" style="endArrow=none;html=1;rounded=0;" edge="1" parent="j1AMkVY8RfKDoTXHwIOU-95">
          <mxGeometry width="50" height="50" relative="1" as="geometry">
            <mxPoint y="20" as="sourcePoint" />
            <mxPoint as="targetPoint" />
          </mxGeometry>
        </mxCell>
        <mxCell id="j1AMkVY8RfKDoTXHwIOU-97" value="" style="endArrow=classic;startArrow=classic;html=1;rounded=0;" edge="1" parent="j1AMkVY8RfKDoTXHwIOU-95">
          <mxGeometry width="50" height="50" relative="1" as="geometry">
            <mxPoint y="10" as="sourcePoint" />
            <mxPoint x="50" y="10" as="targetPoint" />
          </mxGeometry>
        </mxCell>
        <mxCell id="j1AMkVY8RfKDoTXHwIOU-98" value="{50ms}" style="edgeLabel;html=1;align=center;verticalAlign=middle;resizable=0;points=[];" vertex="1" connectable="0" parent="j1AMkVY8RfKDoTXHwIOU-97">
          <mxGeometry x="-0.2654" y="-1" relative="1" as="geometry">
            <mxPoint x="6" y="-1" as="offset" />
          </mxGeometry>
        </mxCell>
        <mxCell id="j1AMkVY8RfKDoTXHwIOU-99" value="" style="endArrow=none;html=1;rounded=0;" edge="1" parent="j1AMkVY8RfKDoTXHwIOU-95">
          <mxGeometry width="50" height="50" relative="1" as="geometry">
            <mxPoint x="50" y="20" as="sourcePoint" />
            <mxPoint x="50" as="targetPoint" />
          </mxGeometry>
        </mxCell>
        <mxCell id="j1AMkVY8RfKDoTXHwIOU-100" value="" style="group" vertex="1" connectable="0" parent="1">
          <mxGeometry x="967" y="1263" width="80" height="20" as="geometry" />
        </mxCell>
        <mxCell id="j1AMkVY8RfKDoTXHwIOU-101" value="" style="endArrow=none;html=1;rounded=0;" edge="1" parent="j1AMkVY8RfKDoTXHwIOU-100">
          <mxGeometry width="50" height="50" relative="1" as="geometry">
            <mxPoint y="20" as="sourcePoint" />
            <mxPoint as="targetPoint" />
          </mxGeometry>
        </mxCell>
        <mxCell id="j1AMkVY8RfKDoTXHwIOU-102" value="" style="endArrow=classic;startArrow=classic;html=1;rounded=0;" edge="1" parent="j1AMkVY8RfKDoTXHwIOU-100">
          <mxGeometry width="50" height="50" relative="1" as="geometry">
            <mxPoint y="10" as="sourcePoint" />
            <mxPoint x="80" y="10" as="targetPoint" />
          </mxGeometry>
        </mxCell>
        <mxCell id="j1AMkVY8RfKDoTXHwIOU-103" value="{50..100ms}" style="edgeLabel;html=1;align=center;verticalAlign=middle;resizable=0;points=[];" vertex="1" connectable="0" parent="j1AMkVY8RfKDoTXHwIOU-102">
          <mxGeometry x="-0.2654" y="-1" relative="1" as="geometry">
            <mxPoint x="11" y="-1" as="offset" />
          </mxGeometry>
        </mxCell>
        <mxCell id="j1AMkVY8RfKDoTXHwIOU-104" value="" style="endArrow=none;html=1;rounded=0;" edge="1" parent="j1AMkVY8RfKDoTXHwIOU-100">
          <mxGeometry width="50" height="50" relative="1" as="geometry">
            <mxPoint x="80" y="20" as="sourcePoint" />
            <mxPoint x="80" as="targetPoint" />
          </mxGeometry>
        </mxCell>
        <mxCell id="j1AMkVY8RfKDoTXHwIOU-105" value="" style="group" vertex="1" connectable="0" parent="1">
          <mxGeometry x="1047" y="1323" width="50" height="20" as="geometry" />
        </mxCell>
        <mxCell id="j1AMkVY8RfKDoTXHwIOU-106" value="" style="endArrow=none;html=1;rounded=0;" edge="1" parent="j1AMkVY8RfKDoTXHwIOU-105">
          <mxGeometry width="50" height="50" relative="1" as="geometry">
            <mxPoint y="20" as="sourcePoint" />
            <mxPoint as="targetPoint" />
          </mxGeometry>
        </mxCell>
        <mxCell id="j1AMkVY8RfKDoTXHwIOU-107" value="" style="endArrow=classic;startArrow=classic;html=1;rounded=0;" edge="1" parent="j1AMkVY8RfKDoTXHwIOU-105">
          <mxGeometry width="50" height="50" relative="1" as="geometry">
            <mxPoint y="10" as="sourcePoint" />
            <mxPoint x="50" y="10" as="targetPoint" />
          </mxGeometry>
        </mxCell>
        <mxCell id="j1AMkVY8RfKDoTXHwIOU-108" value="&lt;span style=&quot;color: rgb(0, 0, 0); font-family: Helvetica; font-size: 11px; font-style: normal; font-variant-ligatures: normal; font-variant-caps: normal; font-weight: 400; letter-spacing: normal; orphans: 2; text-align: center; text-indent: 0px; text-transform: none; widows: 2; word-spacing: 0px; -webkit-text-stroke-width: 0px; background-color: rgb(255, 255, 255); text-decoration-thickness: initial; text-decoration-style: initial; text-decoration-color: initial; float: none; display: inline !important;&quot;&gt;{50ms}&lt;/span&gt;" style="edgeLabel;html=1;align=center;verticalAlign=middle;resizable=0;points=[];" vertex="1" connectable="0" parent="j1AMkVY8RfKDoTXHwIOU-107">
          <mxGeometry x="-0.2654" y="-1" relative="1" as="geometry">
            <mxPoint x="6" y="-1" as="offset" />
          </mxGeometry>
        </mxCell>
        <mxCell id="j1AMkVY8RfKDoTXHwIOU-109" value="" style="endArrow=none;html=1;rounded=0;" edge="1" parent="j1AMkVY8RfKDoTXHwIOU-105">
          <mxGeometry width="50" height="50" relative="1" as="geometry">
            <mxPoint x="50" y="20" as="sourcePoint" />
            <mxPoint x="50" as="targetPoint" />
          </mxGeometry>
        </mxCell>
        <mxCell id="j1AMkVY8RfKDoTXHwIOU-110" value="" style="endArrow=none;html=1;rounded=0;" edge="1" parent="j1AMkVY8RfKDoTXHwIOU-105">
          <mxGeometry width="50" height="50" relative="1" as="geometry">
            <mxPoint x="50" y="20" as="sourcePoint" />
            <mxPoint y="20" as="targetPoint" />
          </mxGeometry>
        </mxCell>
        <mxCell id="j1AMkVY8RfKDoTXHwIOU-111" value="" style="endArrow=none;html=1;rounded=0;" edge="1" parent="1">
          <mxGeometry width="50" height="50" relative="1" as="geometry">
            <mxPoint x="1097" y="1153" as="sourcePoint" />
            <mxPoint x="1097" y="1343" as="targetPoint" />
          </mxGeometry>
        </mxCell>
        <mxCell id="j1AMkVY8RfKDoTXHwIOU-112" value="" style="endArrow=none;html=1;rounded=0;" edge="1" parent="1">
          <mxGeometry width="50" height="50" relative="1" as="geometry">
            <mxPoint x="1097" y="1153" as="sourcePoint" />
            <mxPoint x="1236" y="1153" as="targetPoint" />
          </mxGeometry>
        </mxCell>
        <mxCell id="j1AMkVY8RfKDoTXHwIOU-113" value="nieaktywny&lt;br&gt;&lt;br&gt;&lt;br&gt;otrzymuje polecenie do wyswietlenia grafika&lt;br&gt;&lt;br&gt;&lt;br&gt;szuka grafiku pracy&lt;br&gt;&lt;br&gt;&lt;br&gt;wysyła grafik do kierowcy" style="text;html=1;strokeColor=none;fillColor=none;align=center;verticalAlign=middle;whiteSpace=wrap;rounded=0;" vertex="1" parent="1">
          <mxGeometry x="707" y="1138" width="80" height="220" as="geometry" />
        </mxCell>
        <mxCell id="j1AMkVY8RfKDoTXHwIOU-114" value="polecenie o patrzeniu grafiku" style="endArrow=classic;html=1;rounded=0;" edge="1" parent="1">
          <mxGeometry width="50" height="50" relative="1" as="geometry">
            <mxPoint x="807" y="1433" as="sourcePoint" />
            <mxPoint x="917" y="1153" as="targetPoint" />
          </mxGeometry>
        </mxCell>
        <mxCell id="j1AMkVY8RfKDoTXHwIOU-115" value="" style="endArrow=classic;html=1;rounded=0;" edge="1" parent="1">
          <mxGeometry width="50" height="50" relative="1" as="geometry">
            <mxPoint x="1057" y="1343" as="sourcePoint" />
            <mxPoint x="1127" y="1433" as="targetPoint" />
          </mxGeometry>
        </mxCell>
        <mxCell id="j1AMkVY8RfKDoTXHwIOU-116" value="grafik" style="edgeLabel;html=1;align=center;verticalAlign=middle;resizable=0;points=[];" vertex="1" connectable="0" parent="j1AMkVY8RfKDoTXHwIOU-115">
          <mxGeometry x="0.0321" y="-2" relative="1" as="geometry">
            <mxPoint as="offset" />
          </mxGeometry>
        </mxCell>
        <mxCell id="j1AMkVY8RfKDoTXHwIOU-117" value="" style="endArrow=none;html=1;rounded=0;" edge="1" parent="1">
          <mxGeometry width="50" height="50" relative="1" as="geometry">
            <mxPoint x="967" y="1213" as="sourcePoint" />
            <mxPoint x="967" y="1283" as="targetPoint" />
          </mxGeometry>
        </mxCell>
        <mxCell id="j1AMkVY8RfKDoTXHwIOU-118" value="" style="endArrow=none;html=1;rounded=0;" edge="1" parent="1">
          <mxGeometry width="50" height="50" relative="1" as="geometry">
            <mxPoint x="1200" y="100" as="sourcePoint" />
            <mxPoint x="1200" y="370" as="targetPoint" />
          </mxGeometry>
        </mxCell>
        <mxCell id="j1AMkVY8RfKDoTXHwIOU-119" value="" style="endArrow=classic;html=1;rounded=0;" edge="1" parent="1">
          <mxGeometry width="50" height="50" relative="1" as="geometry">
            <mxPoint x="830" y="-20" as="sourcePoint" />
            <mxPoint x="840" y="100" as="targetPoint" />
          </mxGeometry>
        </mxCell>
        <mxCell id="j1AMkVY8RfKDoTXHwIOU-120" value="preferencje" style="edgeLabel;html=1;align=center;verticalAlign=middle;resizable=0;points=[];" vertex="1" connectable="0" parent="j1AMkVY8RfKDoTXHwIOU-119">
          <mxGeometry x="-0.1009" y="1" relative="1" as="geometry">
            <mxPoint as="offset" />
          </mxGeometry>
        </mxCell>
        <mxCell id="j1AMkVY8RfKDoTXHwIOU-121" value="" style="endArrow=classic;html=1;rounded=0;" edge="1" parent="1">
          <mxGeometry width="50" height="50" relative="1" as="geometry">
            <mxPoint x="1140" y="370" as="sourcePoint" />
            <mxPoint x="890" y="431.4814814814815" as="targetPoint" />
          </mxGeometry>
        </mxCell>
        <mxCell id="j1AMkVY8RfKDoTXHwIOU-122" value="grafik" style="edgeLabel;html=1;align=center;verticalAlign=middle;resizable=0;points=[];" vertex="1" connectable="0" parent="j1AMkVY8RfKDoTXHwIOU-121">
          <mxGeometry x="0.3597" relative="1" as="geometry">
            <mxPoint as="offset" />
          </mxGeometry>
        </mxCell>
        <mxCell id="j1AMkVY8RfKDoTXHwIOU-123" value="" style="endArrow=classic;html=1;rounded=0;" edge="1" parent="1">
          <mxGeometry width="50" height="50" relative="1" as="geometry">
            <mxPoint x="1160" y="370" as="sourcePoint" />
            <mxPoint x="1130" y="-70" as="targetPoint" />
          </mxGeometry>
        </mxCell>
        <mxCell id="j1AMkVY8RfKDoTXHwIOU-124" value="komunikat o tworzeniu grafiku" style="edgeLabel;html=1;align=center;verticalAlign=middle;resizable=0;points=[];" vertex="1" connectable="0" parent="j1AMkVY8RfKDoTXHwIOU-123">
          <mxGeometry x="0.1655" y="-1" relative="1" as="geometry">
            <mxPoint as="offset" />
          </mxGeometry>
        </mxCell>
        <mxCell id="j1AMkVY8RfKDoTXHwIOU-125" value="" style="rounded=0;whiteSpace=wrap;html=1;" vertex="1" parent="1">
          <mxGeometry x="1480" y="-110" width="660" height="210" as="geometry" />
        </mxCell>
        <mxCell id="j1AMkVY8RfKDoTXHwIOU-126" value="&lt;font style=&quot;font-size: 15px;&quot;&gt;&lt;span style=&quot;color: rgb(0, 0, 0); font-family: Helvetica; font-style: normal; font-variant-ligatures: normal; font-variant-caps: normal; font-weight: 400; letter-spacing: normal; orphans: 2; text-align: center; text-indent: 0px; text-transform: none; widows: 2; word-spacing: 0px; -webkit-text-stroke-width: 0px; background-color: rgb(251, 251, 251); text-decoration-thickness: initial; text-decoration-style: initial; text-decoration-color: initial; float: none; display: inline !important;&quot;&gt;kierowca&lt;/span&gt;&lt;br&gt;&lt;/font&gt;" style="text;html=1;strokeColor=none;fillColor=none;align=center;verticalAlign=middle;whiteSpace=wrap;rounded=0;rotation=270;" vertex="1" parent="1">
          <mxGeometry x="1438" y="-30" width="110" height="30" as="geometry" />
        </mxCell>
        <mxCell id="j1AMkVY8RfKDoTXHwIOU-127" value="nieaktywny&lt;br&gt;&lt;br&gt;&lt;br&gt;wysyła sugestie&lt;br&gt;&lt;br&gt;&lt;br&gt;otrzymuje odpowiedż" style="text;html=1;strokeColor=none;fillColor=none;align=center;verticalAlign=middle;whiteSpace=wrap;rounded=0;" vertex="1" parent="1">
          <mxGeometry x="1518" y="-80" width="70" height="130" as="geometry" />
        </mxCell>
        <mxCell id="j1AMkVY8RfKDoTXHwIOU-128" value="" style="endArrow=none;html=1;rounded=0;" edge="1" parent="1">
          <mxGeometry width="50" height="50" relative="1" as="geometry">
            <mxPoint x="1608" y="-70" as="sourcePoint" />
            <mxPoint x="1648" y="-70" as="targetPoint" />
          </mxGeometry>
        </mxCell>
        <mxCell id="j1AMkVY8RfKDoTXHwIOU-129" value="" style="endArrow=none;html=1;rounded=0;" edge="1" parent="1">
          <mxGeometry width="50" height="50" relative="1" as="geometry">
            <mxPoint x="1648" y="-20" as="sourcePoint" />
            <mxPoint x="1728" y="-20" as="targetPoint" />
          </mxGeometry>
        </mxCell>
        <mxCell id="j1AMkVY8RfKDoTXHwIOU-130" value="" style="endArrow=none;html=1;rounded=0;" edge="1" parent="1">
          <mxGeometry width="50" height="50" relative="1" as="geometry">
            <mxPoint x="1728" y="-70" as="sourcePoint" />
            <mxPoint x="1728" y="-20" as="targetPoint" />
          </mxGeometry>
        </mxCell>
        <mxCell id="j1AMkVY8RfKDoTXHwIOU-131" value="" style="endArrow=none;html=1;rounded=0;" edge="1" parent="1">
          <mxGeometry width="50" height="50" relative="1" as="geometry">
            <mxPoint x="1968" y="-70" as="sourcePoint" />
            <mxPoint x="1728" y="-70" as="targetPoint" />
          </mxGeometry>
        </mxCell>
        <mxCell id="j1AMkVY8RfKDoTXHwIOU-132" value="" style="endArrow=none;html=1;rounded=0;" edge="1" parent="1">
          <mxGeometry width="50" height="50" relative="1" as="geometry">
            <mxPoint x="1968" y="-70" as="sourcePoint" />
            <mxPoint x="1968" y="40" as="targetPoint" />
          </mxGeometry>
        </mxCell>
        <mxCell id="j1AMkVY8RfKDoTXHwIOU-133" value="" style="endArrow=none;html=1;rounded=0;" edge="1" parent="1">
          <mxGeometry width="50" height="50" relative="1" as="geometry">
            <mxPoint x="1968" y="40" as="sourcePoint" />
            <mxPoint x="2068" y="40" as="targetPoint" />
          </mxGeometry>
        </mxCell>
        <mxCell id="j1AMkVY8RfKDoTXHwIOU-134" value="" style="endArrow=none;html=1;rounded=0;" edge="1" parent="1">
          <mxGeometry width="50" height="50" relative="1" as="geometry">
            <mxPoint x="2068" y="-70" as="sourcePoint" />
            <mxPoint x="2068" y="40" as="targetPoint" />
          </mxGeometry>
        </mxCell>
        <mxCell id="j1AMkVY8RfKDoTXHwIOU-135" value="" style="endArrow=none;html=1;rounded=0;" edge="1" parent="1">
          <mxGeometry width="50" height="50" relative="1" as="geometry">
            <mxPoint x="2120" y="-70" as="sourcePoint" />
            <mxPoint x="2068" y="-70" as="targetPoint" />
          </mxGeometry>
        </mxCell>
        <mxCell id="j1AMkVY8RfKDoTXHwIOU-136" value="" style="endArrow=none;html=1;rounded=0;" edge="1" parent="1">
          <mxGeometry width="50" height="50" relative="1" as="geometry">
            <mxPoint x="1648" y="-70" as="sourcePoint" />
            <mxPoint x="1648" y="-20" as="targetPoint" />
          </mxGeometry>
        </mxCell>
        <mxCell id="j1AMkVY8RfKDoTXHwIOU-137" value="" style="group" vertex="1" connectable="0" parent="1">
          <mxGeometry x="1648" y="-40" width="80" height="20" as="geometry" />
        </mxCell>
        <mxCell id="j1AMkVY8RfKDoTXHwIOU-138" value="" style="endArrow=none;html=1;rounded=0;" edge="1" parent="j1AMkVY8RfKDoTXHwIOU-137">
          <mxGeometry width="50" height="50" relative="1" as="geometry">
            <mxPoint y="20" as="sourcePoint" />
            <mxPoint as="targetPoint" />
          </mxGeometry>
        </mxCell>
        <mxCell id="j1AMkVY8RfKDoTXHwIOU-139" value="" style="endArrow=classic;startArrow=classic;html=1;rounded=0;" edge="1" parent="j1AMkVY8RfKDoTXHwIOU-137">
          <mxGeometry width="50" height="50" relative="1" as="geometry">
            <mxPoint y="10" as="sourcePoint" />
            <mxPoint x="80" y="10" as="targetPoint" />
          </mxGeometry>
        </mxCell>
        <mxCell id="j1AMkVY8RfKDoTXHwIOU-140" value="{20..100ms}" style="edgeLabel;html=1;align=center;verticalAlign=middle;resizable=0;points=[];" vertex="1" connectable="0" parent="j1AMkVY8RfKDoTXHwIOU-139">
          <mxGeometry x="-0.2654" y="-1" relative="1" as="geometry">
            <mxPoint x="11" y="-1" as="offset" />
          </mxGeometry>
        </mxCell>
        <mxCell id="j1AMkVY8RfKDoTXHwIOU-141" value="" style="endArrow=none;html=1;rounded=0;" edge="1" parent="j1AMkVY8RfKDoTXHwIOU-137">
          <mxGeometry width="50" height="50" relative="1" as="geometry">
            <mxPoint x="80" y="20" as="sourcePoint" />
            <mxPoint x="80" as="targetPoint" />
          </mxGeometry>
        </mxCell>
        <mxCell id="j1AMkVY8RfKDoTXHwIOU-142" value="" style="group" vertex="1" connectable="0" parent="1">
          <mxGeometry x="1968" y="20" width="100" height="20" as="geometry" />
        </mxCell>
        <mxCell id="j1AMkVY8RfKDoTXHwIOU-143" value="" style="endArrow=none;html=1;rounded=0;" edge="1" parent="j1AMkVY8RfKDoTXHwIOU-142">
          <mxGeometry width="50" height="50" relative="1" as="geometry">
            <mxPoint y="20" as="sourcePoint" />
            <mxPoint as="targetPoint" />
          </mxGeometry>
        </mxCell>
        <mxCell id="j1AMkVY8RfKDoTXHwIOU-144" value="" style="endArrow=classic;startArrow=classic;html=1;rounded=0;" edge="1" parent="j1AMkVY8RfKDoTXHwIOU-142">
          <mxGeometry width="50" height="50" relative="1" as="geometry">
            <mxPoint y="10" as="sourcePoint" />
            <mxPoint x="100" y="10" as="targetPoint" />
          </mxGeometry>
        </mxCell>
        <mxCell id="j1AMkVY8RfKDoTXHwIOU-145" value="{20..50ms}" style="edgeLabel;html=1;align=center;verticalAlign=middle;resizable=0;points=[];" vertex="1" connectable="0" parent="j1AMkVY8RfKDoTXHwIOU-144">
          <mxGeometry x="-0.2654" y="-1" relative="1" as="geometry">
            <mxPoint x="13" y="-1" as="offset" />
          </mxGeometry>
        </mxCell>
        <mxCell id="j1AMkVY8RfKDoTXHwIOU-146" value="" style="endArrow=none;html=1;rounded=0;" edge="1" parent="j1AMkVY8RfKDoTXHwIOU-142">
          <mxGeometry width="50" height="50" relative="1" as="geometry">
            <mxPoint x="100" y="20" as="sourcePoint" />
            <mxPoint x="100" as="targetPoint" />
          </mxGeometry>
        </mxCell>
        <mxCell id="j1AMkVY8RfKDoTXHwIOU-147" value="&lt;b style=&quot;border-color: var(--border-color);&quot;&gt;TD&lt;/b&gt;: proces wysylania &lt;br&gt;sugestii kierowca" style="shape=umlFrame;whiteSpace=wrap;html=1;pointerEvents=0;width=207;height=45;" vertex="1" parent="1">
          <mxGeometry x="1461" y="-176" width="699" height="293" as="geometry" />
        </mxCell>
        <mxCell id="j1AMkVY8RfKDoTXHwIOU-148" value="&lt;b style=&quot;border-color: var(--border-color);&quot;&gt;TD&lt;/b&gt;: proces tworzenia &lt;br&gt;grafiku pracy" style="shape=umlFrame;whiteSpace=wrap;html=1;pointerEvents=0;width=210;height=42;" vertex="1" parent="1">
          <mxGeometry x="1460" y="160" width="700" height="417" as="geometry" />
        </mxCell>
        <mxCell id="j1AMkVY8RfKDoTXHwIOU-149" value="" style="rounded=0;whiteSpace=wrap;html=1;" vertex="1" parent="1">
          <mxGeometry x="1478" y="220" width="662" height="340" as="geometry" />
        </mxCell>
        <mxCell id="j1AMkVY8RfKDoTXHwIOU-150" value="&lt;font style=&quot;font-size: 15px;&quot;&gt;&lt;span style=&quot;color: rgb(0, 0, 0); font-family: Helvetica; font-style: normal; font-variant-ligatures: normal; font-variant-caps: normal; font-weight: 400; letter-spacing: normal; orphans: 2; text-align: center; text-indent: 0px; text-transform: none; widows: 2; word-spacing: 0px; -webkit-text-stroke-width: 0px; background-color: rgb(251, 251, 251); text-decoration-thickness: initial; text-decoration-style: initial; text-decoration-color: initial; float: none; display: inline !important;&quot;&gt;dyspozytor&lt;/span&gt;&lt;br&gt;&lt;/font&gt;" style="text;html=1;strokeColor=none;fillColor=none;align=center;verticalAlign=middle;whiteSpace=wrap;rounded=0;rotation=270;" vertex="1" parent="1">
          <mxGeometry x="1438" y="365" width="110" height="30" as="geometry" />
        </mxCell>
        <mxCell id="j1AMkVY8RfKDoTXHwIOU-151" value="nieaktywny&lt;br&gt;&lt;br&gt;&lt;br&gt;otrzyma dane&lt;br&gt;&lt;br&gt;&lt;br&gt;sprawdza i modyfikuje grafik&lt;br&gt;&lt;br&gt;&lt;br&gt;tworzy grafik sam albo z uzyciem systemu&lt;br&gt;&lt;br&gt;&lt;br&gt;wysyła dane do servera" style="text;html=1;strokeColor=none;fillColor=none;align=center;verticalAlign=middle;whiteSpace=wrap;rounded=0;" vertex="1" parent="1">
          <mxGeometry x="1518" y="240" width="70" height="280" as="geometry" />
        </mxCell>
        <mxCell id="j1AMkVY8RfKDoTXHwIOU-152" value="" style="endArrow=none;html=1;rounded=0;" edge="1" parent="1">
          <mxGeometry width="50" height="50" relative="1" as="geometry">
            <mxPoint x="1608" y="240" as="sourcePoint" />
            <mxPoint x="1678" y="240" as="targetPoint" />
          </mxGeometry>
        </mxCell>
        <mxCell id="j1AMkVY8RfKDoTXHwIOU-153" value="" style="endArrow=none;html=1;rounded=0;" edge="1" parent="1">
          <mxGeometry width="50" height="50" relative="1" as="geometry">
            <mxPoint x="1677.6599999999999" y="240" as="sourcePoint" />
            <mxPoint x="1677.6599999999999" y="290" as="targetPoint" />
          </mxGeometry>
        </mxCell>
        <mxCell id="j1AMkVY8RfKDoTXHwIOU-154" value="" style="endArrow=none;html=1;rounded=0;" edge="1" parent="1">
          <mxGeometry width="50" height="50" relative="1" as="geometry">
            <mxPoint x="1678" y="290" as="sourcePoint" />
            <mxPoint x="1738" y="290" as="targetPoint" />
          </mxGeometry>
        </mxCell>
        <mxCell id="j1AMkVY8RfKDoTXHwIOU-155" value="" style="endArrow=none;html=1;rounded=0;" edge="1" parent="1">
          <mxGeometry width="50" height="50" relative="1" as="geometry">
            <mxPoint x="1738" y="440" as="sourcePoint" />
            <mxPoint x="1738" y="290" as="targetPoint" />
          </mxGeometry>
        </mxCell>
        <mxCell id="j1AMkVY8RfKDoTXHwIOU-156" value="" style="endArrow=none;html=1;rounded=0;" edge="1" parent="1">
          <mxGeometry width="50" height="50" relative="1" as="geometry">
            <mxPoint x="1828" y="440" as="sourcePoint" />
            <mxPoint x="1738" y="440" as="targetPoint" />
          </mxGeometry>
        </mxCell>
        <mxCell id="j1AMkVY8RfKDoTXHwIOU-157" value="" style="endArrow=none;html=1;rounded=0;" edge="1" parent="1">
          <mxGeometry width="50" height="50" relative="1" as="geometry">
            <mxPoint x="1958" y="360" as="sourcePoint" />
            <mxPoint x="1958" y="510" as="targetPoint" />
          </mxGeometry>
        </mxCell>
        <mxCell id="j1AMkVY8RfKDoTXHwIOU-158" value="" style="endArrow=none;html=1;rounded=0;" edge="1" parent="1">
          <mxGeometry width="50" height="50" relative="1" as="geometry">
            <mxPoint x="1958" y="510" as="sourcePoint" />
            <mxPoint x="2038" y="510" as="targetPoint" />
          </mxGeometry>
        </mxCell>
        <mxCell id="j1AMkVY8RfKDoTXHwIOU-159" value="" style="endArrow=none;html=1;rounded=0;" edge="1" parent="1">
          <mxGeometry width="50" height="50" relative="1" as="geometry">
            <mxPoint x="2038" y="240" as="sourcePoint" />
            <mxPoint x="2130" y="240" as="targetPoint" />
          </mxGeometry>
        </mxCell>
        <mxCell id="j1AMkVY8RfKDoTXHwIOU-160" value="" style="group" vertex="1" connectable="0" parent="1">
          <mxGeometry x="1738" y="420" width="90" height="20" as="geometry" />
        </mxCell>
        <mxCell id="j1AMkVY8RfKDoTXHwIOU-161" value="" style="endArrow=none;html=1;rounded=0;" edge="1" parent="j1AMkVY8RfKDoTXHwIOU-160">
          <mxGeometry width="50" height="50" relative="1" as="geometry">
            <mxPoint y="20" as="sourcePoint" />
            <mxPoint as="targetPoint" />
          </mxGeometry>
        </mxCell>
        <mxCell id="j1AMkVY8RfKDoTXHwIOU-162" value="" style="endArrow=classic;startArrow=classic;html=1;rounded=0;" edge="1" parent="j1AMkVY8RfKDoTXHwIOU-160">
          <mxGeometry width="50" height="50" relative="1" as="geometry">
            <mxPoint y="10" as="sourcePoint" />
            <mxPoint x="90" y="10" as="targetPoint" />
          </mxGeometry>
        </mxCell>
        <mxCell id="j1AMkVY8RfKDoTXHwIOU-163" value="{t+400..600ms}" style="edgeLabel;html=1;align=center;verticalAlign=middle;resizable=0;points=[];" vertex="1" connectable="0" parent="j1AMkVY8RfKDoTXHwIOU-162">
          <mxGeometry x="-0.2654" y="-1" relative="1" as="geometry">
            <mxPoint x="12" y="-1" as="offset" />
          </mxGeometry>
        </mxCell>
        <mxCell id="j1AMkVY8RfKDoTXHwIOU-164" value="" style="endArrow=none;html=1;rounded=0;" edge="1" parent="j1AMkVY8RfKDoTXHwIOU-160">
          <mxGeometry width="50" height="50" relative="1" as="geometry">
            <mxPoint x="90" y="20" as="sourcePoint" />
            <mxPoint x="90" as="targetPoint" />
          </mxGeometry>
        </mxCell>
        <mxCell id="j1AMkVY8RfKDoTXHwIOU-165" value="" style="group" vertex="1" connectable="0" parent="1">
          <mxGeometry x="1678" y="270" width="60" height="20" as="geometry" />
        </mxCell>
        <mxCell id="j1AMkVY8RfKDoTXHwIOU-166" value="" style="endArrow=none;html=1;rounded=0;" edge="1" parent="j1AMkVY8RfKDoTXHwIOU-165">
          <mxGeometry width="50" height="50" relative="1" as="geometry">
            <mxPoint y="20" as="sourcePoint" />
            <mxPoint as="targetPoint" />
          </mxGeometry>
        </mxCell>
        <mxCell id="j1AMkVY8RfKDoTXHwIOU-167" value="" style="endArrow=classic;startArrow=classic;html=1;rounded=0;" edge="1" parent="j1AMkVY8RfKDoTXHwIOU-165">
          <mxGeometry width="50" height="50" relative="1" as="geometry">
            <mxPoint y="10" as="sourcePoint" />
            <mxPoint x="60" y="10" as="targetPoint" />
          </mxGeometry>
        </mxCell>
        <mxCell id="j1AMkVY8RfKDoTXHwIOU-168" value="{50ms}" style="edgeLabel;html=1;align=center;verticalAlign=middle;resizable=0;points=[];" vertex="1" connectable="0" parent="j1AMkVY8RfKDoTXHwIOU-167">
          <mxGeometry x="-0.2654" y="-1" relative="1" as="geometry">
            <mxPoint x="8" y="-1" as="offset" />
          </mxGeometry>
        </mxCell>
        <mxCell id="j1AMkVY8RfKDoTXHwIOU-169" value="" style="endArrow=none;html=1;rounded=0;" edge="1" parent="j1AMkVY8RfKDoTXHwIOU-165">
          <mxGeometry width="50" height="50" relative="1" as="geometry">
            <mxPoint x="60" y="20" as="sourcePoint" />
            <mxPoint x="60" as="targetPoint" />
          </mxGeometry>
        </mxCell>
        <mxCell id="j1AMkVY8RfKDoTXHwIOU-170" value="" style="group" vertex="1" connectable="0" parent="1">
          <mxGeometry x="1958" y="490" width="80" height="20" as="geometry" />
        </mxCell>
        <mxCell id="j1AMkVY8RfKDoTXHwIOU-171" value="" style="endArrow=none;html=1;rounded=0;" edge="1" parent="j1AMkVY8RfKDoTXHwIOU-170">
          <mxGeometry width="50" height="50" relative="1" as="geometry">
            <mxPoint y="20" as="sourcePoint" />
            <mxPoint as="targetPoint" />
          </mxGeometry>
        </mxCell>
        <mxCell id="j1AMkVY8RfKDoTXHwIOU-172" value="" style="endArrow=classic;startArrow=classic;html=1;rounded=0;" edge="1" parent="j1AMkVY8RfKDoTXHwIOU-170">
          <mxGeometry width="50" height="50" relative="1" as="geometry">
            <mxPoint y="10" as="sourcePoint" />
            <mxPoint x="80" y="10" as="targetPoint" />
          </mxGeometry>
        </mxCell>
        <mxCell id="j1AMkVY8RfKDoTXHwIOU-173" value="{100..150ms}" style="edgeLabel;html=1;align=center;verticalAlign=middle;resizable=0;points=[];" vertex="1" connectable="0" parent="j1AMkVY8RfKDoTXHwIOU-172">
          <mxGeometry x="-0.2654" y="-1" relative="1" as="geometry">
            <mxPoint x="10" y="-1" as="offset" />
          </mxGeometry>
        </mxCell>
        <mxCell id="j1AMkVY8RfKDoTXHwIOU-174" value="" style="endArrow=none;html=1;rounded=0;" edge="1" parent="j1AMkVY8RfKDoTXHwIOU-170">
          <mxGeometry width="50" height="50" relative="1" as="geometry">
            <mxPoint x="80" y="20" as="sourcePoint" />
            <mxPoint x="80" as="targetPoint" />
          </mxGeometry>
        </mxCell>
        <mxCell id="j1AMkVY8RfKDoTXHwIOU-175" value="" style="group" vertex="1" connectable="0" parent="1">
          <mxGeometry x="1828" y="340" width="130" height="20" as="geometry" />
        </mxCell>
        <mxCell id="j1AMkVY8RfKDoTXHwIOU-176" value="" style="endArrow=none;html=1;rounded=0;" edge="1" parent="j1AMkVY8RfKDoTXHwIOU-175">
          <mxGeometry width="50" height="50" relative="1" as="geometry">
            <mxPoint y="20" as="sourcePoint" />
            <mxPoint as="targetPoint" />
          </mxGeometry>
        </mxCell>
        <mxCell id="j1AMkVY8RfKDoTXHwIOU-177" value="" style="endArrow=classic;startArrow=classic;html=1;rounded=0;" edge="1" parent="j1AMkVY8RfKDoTXHwIOU-175">
          <mxGeometry width="50" height="50" relative="1" as="geometry">
            <mxPoint y="10" as="sourcePoint" />
            <mxPoint x="129.99999999999997" y="10" as="targetPoint" />
          </mxGeometry>
        </mxCell>
        <mxCell id="j1AMkVY8RfKDoTXHwIOU-178" value="{t+300..350ms}" style="edgeLabel;html=1;align=center;verticalAlign=middle;resizable=0;points=[];" vertex="1" connectable="0" parent="j1AMkVY8RfKDoTXHwIOU-177">
          <mxGeometry x="-0.2654" y="-1" relative="1" as="geometry">
            <mxPoint x="17" y="-1" as="offset" />
          </mxGeometry>
        </mxCell>
        <mxCell id="j1AMkVY8RfKDoTXHwIOU-179" value="" style="endArrow=none;html=1;rounded=0;" edge="1" parent="j1AMkVY8RfKDoTXHwIOU-175">
          <mxGeometry width="50" height="50" relative="1" as="geometry">
            <mxPoint x="129.99999999999997" y="20" as="sourcePoint" />
            <mxPoint x="129.99999999999997" as="targetPoint" />
          </mxGeometry>
        </mxCell>
        <mxCell id="j1AMkVY8RfKDoTXHwIOU-180" value="" style="endArrow=none;html=1;rounded=0;" edge="1" parent="1">
          <mxGeometry width="50" height="50" relative="1" as="geometry">
            <mxPoint x="1828" y="360" as="sourcePoint" />
            <mxPoint x="1828" y="440" as="targetPoint" />
          </mxGeometry>
        </mxCell>
        <mxCell id="j1AMkVY8RfKDoTXHwIOU-181" value="" style="endArrow=none;html=1;rounded=0;" edge="1" parent="1">
          <mxGeometry width="50" height="50" relative="1" as="geometry">
            <mxPoint x="1958" y="360" as="sourcePoint" />
            <mxPoint x="1828" y="360" as="targetPoint" />
          </mxGeometry>
        </mxCell>
        <mxCell id="j1AMkVY8RfKDoTXHwIOU-182" value="" style="endArrow=none;html=1;rounded=0;" edge="1" parent="1">
          <mxGeometry width="50" height="50" relative="1" as="geometry">
            <mxPoint x="2038" y="240" as="sourcePoint" />
            <mxPoint x="2038" y="510" as="targetPoint" />
          </mxGeometry>
        </mxCell>
        <mxCell id="j1AMkVY8RfKDoTXHwIOU-183" value="&lt;b style=&quot;border-color: var(--border-color);&quot;&gt;TD&lt;/b&gt;: proces zapisu grafiku &lt;br&gt;pracy do chmurzy&amp;nbsp;" style="shape=umlFrame;whiteSpace=wrap;html=1;pointerEvents=0;width=202;height=49;" vertex="1" parent="1">
          <mxGeometry x="1460" y="610" width="520" height="360" as="geometry" />
        </mxCell>
        <mxCell id="j1AMkVY8RfKDoTXHwIOU-184" value="" style="rounded=0;whiteSpace=wrap;html=1;" vertex="1" parent="1">
          <mxGeometry x="1480" y="680" width="480" height="270" as="geometry" />
        </mxCell>
        <mxCell id="j1AMkVY8RfKDoTXHwIOU-185" value="&lt;font style=&quot;font-size: 15px;&quot;&gt;&lt;span style=&quot;color: rgb(0, 0, 0); font-family: Helvetica; font-style: normal; font-variant-ligatures: normal; font-variant-caps: normal; font-weight: 400; letter-spacing: normal; orphans: 2; text-align: center; text-indent: 0px; text-transform: none; widows: 2; word-spacing: 0px; -webkit-text-stroke-width: 0px; background-color: rgb(251, 251, 251); text-decoration-thickness: initial; text-decoration-style: initial; text-decoration-color: initial; float: none; display: inline !important;&quot;&gt;baza dannych&lt;/span&gt;&lt;br&gt;&lt;/font&gt;" style="text;html=1;strokeColor=none;fillColor=none;align=center;verticalAlign=middle;whiteSpace=wrap;rounded=0;rotation=270;" vertex="1" parent="1">
          <mxGeometry x="1438" y="787" width="110" height="30" as="geometry" />
        </mxCell>
        <mxCell id="j1AMkVY8RfKDoTXHwIOU-186" value="nieaktywny&lt;br&gt;&lt;br&gt;&lt;br&gt;otrzymuje dane&lt;br&gt;&lt;br&gt;&lt;br&gt;przetwarza dane&lt;br&gt;&lt;br&gt;&lt;br&gt;zapiszuje dane do chmurzy" style="text;html=1;strokeColor=none;fillColor=none;align=center;verticalAlign=middle;whiteSpace=wrap;rounded=0;" vertex="1" parent="1">
          <mxGeometry x="1513" y="697" width="80" height="210" as="geometry" />
        </mxCell>
        <mxCell id="j1AMkVY8RfKDoTXHwIOU-187" value="" style="endArrow=none;html=1;rounded=0;" edge="1" parent="1">
          <mxGeometry width="50" height="50" relative="1" as="geometry">
            <mxPoint x="1608" y="707" as="sourcePoint" />
            <mxPoint x="1728" y="707" as="targetPoint" />
          </mxGeometry>
        </mxCell>
        <mxCell id="j1AMkVY8RfKDoTXHwIOU-188" value="" style="endArrow=none;html=1;rounded=0;" edge="1" parent="1">
          <mxGeometry width="50" height="50" relative="1" as="geometry">
            <mxPoint x="1728" y="757" as="sourcePoint" />
            <mxPoint x="1728" y="707" as="targetPoint" />
          </mxGeometry>
        </mxCell>
        <mxCell id="j1AMkVY8RfKDoTXHwIOU-189" value="" style="endArrow=none;html=1;rounded=0;" edge="1" parent="1">
          <mxGeometry width="50" height="50" relative="1" as="geometry">
            <mxPoint x="1728" y="757" as="sourcePoint" />
            <mxPoint x="1778" y="757" as="targetPoint" />
          </mxGeometry>
        </mxCell>
        <mxCell id="j1AMkVY8RfKDoTXHwIOU-190" value="" style="endArrow=none;html=1;rounded=0;" edge="1" parent="1">
          <mxGeometry width="50" height="50" relative="1" as="geometry">
            <mxPoint x="1778" y="757" as="sourcePoint" />
            <mxPoint x="1778" y="817" as="targetPoint" />
          </mxGeometry>
        </mxCell>
        <mxCell id="j1AMkVY8RfKDoTXHwIOU-191" value="" style="endArrow=none;html=1;rounded=0;" edge="1" parent="1">
          <mxGeometry width="50" height="50" relative="1" as="geometry">
            <mxPoint x="1778" y="817" as="sourcePoint" />
            <mxPoint x="1828" y="817" as="targetPoint" />
          </mxGeometry>
        </mxCell>
        <mxCell id="j1AMkVY8RfKDoTXHwIOU-192" value="" style="endArrow=none;html=1;rounded=0;" edge="1" parent="1">
          <mxGeometry width="50" height="50" relative="1" as="geometry">
            <mxPoint x="1828" y="877" as="sourcePoint" />
            <mxPoint x="1828" y="817" as="targetPoint" />
          </mxGeometry>
        </mxCell>
        <mxCell id="j1AMkVY8RfKDoTXHwIOU-193" value="" style="endArrow=none;html=1;rounded=0;" edge="1" parent="1">
          <mxGeometry width="50" height="50" relative="1" as="geometry">
            <mxPoint x="1878" y="877" as="sourcePoint" />
            <mxPoint x="1828" y="877" as="targetPoint" />
          </mxGeometry>
        </mxCell>
        <mxCell id="j1AMkVY8RfKDoTXHwIOU-194" value="" style="group" vertex="1" connectable="0" parent="1">
          <mxGeometry x="1728" y="737" width="50" height="20" as="geometry" />
        </mxCell>
        <mxCell id="j1AMkVY8RfKDoTXHwIOU-195" value="" style="endArrow=none;html=1;rounded=0;" edge="1" parent="j1AMkVY8RfKDoTXHwIOU-194">
          <mxGeometry width="50" height="50" relative="1" as="geometry">
            <mxPoint y="20" as="sourcePoint" />
            <mxPoint as="targetPoint" />
          </mxGeometry>
        </mxCell>
        <mxCell id="j1AMkVY8RfKDoTXHwIOU-196" value="" style="endArrow=classic;startArrow=classic;html=1;rounded=0;" edge="1" parent="j1AMkVY8RfKDoTXHwIOU-194">
          <mxGeometry width="50" height="50" relative="1" as="geometry">
            <mxPoint y="10" as="sourcePoint" />
            <mxPoint x="50" y="10" as="targetPoint" />
          </mxGeometry>
        </mxCell>
        <mxCell id="j1AMkVY8RfKDoTXHwIOU-197" value="{50ms}" style="edgeLabel;html=1;align=center;verticalAlign=middle;resizable=0;points=[];" vertex="1" connectable="0" parent="j1AMkVY8RfKDoTXHwIOU-196">
          <mxGeometry x="-0.2654" y="-1" relative="1" as="geometry">
            <mxPoint x="6" y="-1" as="offset" />
          </mxGeometry>
        </mxCell>
        <mxCell id="j1AMkVY8RfKDoTXHwIOU-198" value="" style="endArrow=none;html=1;rounded=0;" edge="1" parent="j1AMkVY8RfKDoTXHwIOU-194">
          <mxGeometry width="50" height="50" relative="1" as="geometry">
            <mxPoint x="50" y="20" as="sourcePoint" />
            <mxPoint x="50" as="targetPoint" />
          </mxGeometry>
        </mxCell>
        <mxCell id="j1AMkVY8RfKDoTXHwIOU-199" value="" style="group" vertex="1" connectable="0" parent="1">
          <mxGeometry x="1778" y="797" width="50" height="20" as="geometry" />
        </mxCell>
        <mxCell id="j1AMkVY8RfKDoTXHwIOU-200" value="" style="endArrow=none;html=1;rounded=0;" edge="1" parent="j1AMkVY8RfKDoTXHwIOU-199">
          <mxGeometry width="50" height="50" relative="1" as="geometry">
            <mxPoint y="20" as="sourcePoint" />
            <mxPoint as="targetPoint" />
          </mxGeometry>
        </mxCell>
        <mxCell id="j1AMkVY8RfKDoTXHwIOU-201" value="" style="endArrow=classic;startArrow=classic;html=1;rounded=0;" edge="1" parent="j1AMkVY8RfKDoTXHwIOU-199">
          <mxGeometry width="50" height="50" relative="1" as="geometry">
            <mxPoint y="10" as="sourcePoint" />
            <mxPoint x="50" y="10" as="targetPoint" />
          </mxGeometry>
        </mxCell>
        <mxCell id="j1AMkVY8RfKDoTXHwIOU-202" value="{150ms}" style="edgeLabel;html=1;align=center;verticalAlign=middle;resizable=0;points=[];" vertex="1" connectable="0" parent="j1AMkVY8RfKDoTXHwIOU-201">
          <mxGeometry x="-0.2654" y="-1" relative="1" as="geometry">
            <mxPoint x="6" y="-1" as="offset" />
          </mxGeometry>
        </mxCell>
        <mxCell id="j1AMkVY8RfKDoTXHwIOU-203" value="" style="endArrow=none;html=1;rounded=0;" edge="1" parent="j1AMkVY8RfKDoTXHwIOU-199">
          <mxGeometry width="50" height="50" relative="1" as="geometry">
            <mxPoint x="50" y="20" as="sourcePoint" />
            <mxPoint x="50" as="targetPoint" />
          </mxGeometry>
        </mxCell>
        <mxCell id="j1AMkVY8RfKDoTXHwIOU-204" value="" style="group" vertex="1" connectable="0" parent="1">
          <mxGeometry x="1828" y="857" width="50" height="20" as="geometry" />
        </mxCell>
        <mxCell id="j1AMkVY8RfKDoTXHwIOU-205" value="" style="endArrow=none;html=1;rounded=0;" edge="1" parent="j1AMkVY8RfKDoTXHwIOU-204">
          <mxGeometry width="50" height="50" relative="1" as="geometry">
            <mxPoint y="20" as="sourcePoint" />
            <mxPoint as="targetPoint" />
          </mxGeometry>
        </mxCell>
        <mxCell id="j1AMkVY8RfKDoTXHwIOU-206" value="" style="endArrow=classic;startArrow=classic;html=1;rounded=0;" edge="1" parent="j1AMkVY8RfKDoTXHwIOU-204">
          <mxGeometry width="50" height="50" relative="1" as="geometry">
            <mxPoint y="10" as="sourcePoint" />
            <mxPoint x="50" y="10" as="targetPoint" />
          </mxGeometry>
        </mxCell>
        <mxCell id="j1AMkVY8RfKDoTXHwIOU-207" value="{100ms}" style="edgeLabel;html=1;align=center;verticalAlign=middle;resizable=0;points=[];" vertex="1" connectable="0" parent="j1AMkVY8RfKDoTXHwIOU-206">
          <mxGeometry x="-0.2654" y="-1" relative="1" as="geometry">
            <mxPoint x="6" y="-1" as="offset" />
          </mxGeometry>
        </mxCell>
        <mxCell id="j1AMkVY8RfKDoTXHwIOU-208" value="" style="endArrow=none;html=1;rounded=0;" edge="1" parent="j1AMkVY8RfKDoTXHwIOU-204">
          <mxGeometry width="50" height="50" relative="1" as="geometry">
            <mxPoint x="50" y="20" as="sourcePoint" />
            <mxPoint x="50" as="targetPoint" />
          </mxGeometry>
        </mxCell>
        <mxCell id="j1AMkVY8RfKDoTXHwIOU-209" value="" style="endArrow=none;html=1;rounded=0;" edge="1" parent="1">
          <mxGeometry width="50" height="50" relative="1" as="geometry">
            <mxPoint x="1878" y="707" as="sourcePoint" />
            <mxPoint x="1878" y="877" as="targetPoint" />
          </mxGeometry>
        </mxCell>
        <mxCell id="j1AMkVY8RfKDoTXHwIOU-210" value="" style="endArrow=none;html=1;rounded=0;" edge="1" parent="1">
          <mxGeometry width="50" height="50" relative="1" as="geometry">
            <mxPoint x="1878" y="707" as="sourcePoint" />
            <mxPoint x="1946" y="707" as="targetPoint" />
          </mxGeometry>
        </mxCell>
        <mxCell id="j1AMkVY8RfKDoTXHwIOU-211" value="&lt;b style=&quot;border-color: var(--border-color);&quot;&gt;TD&lt;/b&gt;: patrzenie grafiku" style="shape=umlFrame;whiteSpace=wrap;html=1;pointerEvents=0;width=212;height=47;" vertex="1" parent="1">
          <mxGeometry x="1318" y="1448" width="640" height="232" as="geometry" />
        </mxCell>
        <mxCell id="j1AMkVY8RfKDoTXHwIOU-212" value="&lt;b style=&quot;border-color: var(--border-color);&quot;&gt;TD&lt;/b&gt;: proces wyszukiwania &lt;br&gt;potrzebnego grafiku pracy" style="shape=umlFrame;whiteSpace=wrap;html=1;pointerEvents=0;width=244;height=45;" vertex="1" parent="1">
          <mxGeometry x="1318" y="1053" width="590" height="357" as="geometry" />
        </mxCell>
        <mxCell id="j1AMkVY8RfKDoTXHwIOU-213" value="" style="rounded=0;whiteSpace=wrap;html=1;" vertex="1" parent="1">
          <mxGeometry x="1340" y="1120" width="550" height="270" as="geometry" />
        </mxCell>
        <mxCell id="j1AMkVY8RfKDoTXHwIOU-214" value="&lt;font style=&quot;font-size: 15px;&quot;&gt;&lt;span style=&quot;color: rgb(0, 0, 0); font-family: Helvetica; font-style: normal; font-variant-ligatures: normal; font-variant-caps: normal; font-weight: 400; letter-spacing: normal; orphans: 2; text-align: center; text-indent: 0px; text-transform: none; widows: 2; word-spacing: 0px; -webkit-text-stroke-width: 0px; background-color: rgb(251, 251, 251); text-decoration-thickness: initial; text-decoration-style: initial; text-decoration-color: initial; float: none; display: inline !important;&quot;&gt;baza dannych&lt;/span&gt;&lt;br&gt;&lt;/font&gt;" style="text;html=1;strokeColor=none;fillColor=none;align=center;verticalAlign=middle;whiteSpace=wrap;rounded=0;rotation=270;" vertex="1" parent="1">
          <mxGeometry x="1309" y="1233" width="110" height="30" as="geometry" />
        </mxCell>
        <mxCell id="j1AMkVY8RfKDoTXHwIOU-215" value="" style="endArrow=none;html=1;rounded=0;" edge="1" parent="1">
          <mxGeometry width="50" height="50" relative="1" as="geometry">
            <mxPoint x="1479" y="1153" as="sourcePoint" />
            <mxPoint x="1599" y="1153" as="targetPoint" />
          </mxGeometry>
        </mxCell>
        <mxCell id="j1AMkVY8RfKDoTXHwIOU-216" value="" style="endArrow=none;html=1;rounded=0;" edge="1" parent="1">
          <mxGeometry width="50" height="50" relative="1" as="geometry">
            <mxPoint x="1599" y="1213" as="sourcePoint" />
            <mxPoint x="1599" y="1153" as="targetPoint" />
          </mxGeometry>
        </mxCell>
        <mxCell id="j1AMkVY8RfKDoTXHwIOU-217" value="" style="endArrow=none;html=1;rounded=0;" edge="1" parent="1">
          <mxGeometry width="50" height="50" relative="1" as="geometry">
            <mxPoint x="1599" y="1213" as="sourcePoint" />
            <mxPoint x="1649" y="1213" as="targetPoint" />
          </mxGeometry>
        </mxCell>
        <mxCell id="j1AMkVY8RfKDoTXHwIOU-218" value="" style="endArrow=none;html=1;rounded=0;" edge="1" parent="1">
          <mxGeometry width="50" height="50" relative="1" as="geometry">
            <mxPoint x="1649" y="1283" as="sourcePoint" />
            <mxPoint x="1729" y="1283" as="targetPoint" />
          </mxGeometry>
        </mxCell>
        <mxCell id="j1AMkVY8RfKDoTXHwIOU-219" value="" style="endArrow=none;html=1;rounded=0;" edge="1" parent="1">
          <mxGeometry width="50" height="50" relative="1" as="geometry">
            <mxPoint x="1729" y="1343" as="sourcePoint" />
            <mxPoint x="1729" y="1283" as="targetPoint" />
          </mxGeometry>
        </mxCell>
        <mxCell id="j1AMkVY8RfKDoTXHwIOU-220" value="" style="group" vertex="1" connectable="0" parent="1">
          <mxGeometry x="1599" y="1193" width="50" height="20" as="geometry" />
        </mxCell>
        <mxCell id="j1AMkVY8RfKDoTXHwIOU-221" value="" style="endArrow=none;html=1;rounded=0;" edge="1" parent="j1AMkVY8RfKDoTXHwIOU-220">
          <mxGeometry width="50" height="50" relative="1" as="geometry">
            <mxPoint y="20" as="sourcePoint" />
            <mxPoint as="targetPoint" />
          </mxGeometry>
        </mxCell>
        <mxCell id="j1AMkVY8RfKDoTXHwIOU-222" value="" style="endArrow=classic;startArrow=classic;html=1;rounded=0;" edge="1" parent="j1AMkVY8RfKDoTXHwIOU-220">
          <mxGeometry width="50" height="50" relative="1" as="geometry">
            <mxPoint y="10" as="sourcePoint" />
            <mxPoint x="50" y="10" as="targetPoint" />
          </mxGeometry>
        </mxCell>
        <mxCell id="j1AMkVY8RfKDoTXHwIOU-223" value="{50ms}" style="edgeLabel;html=1;align=center;verticalAlign=middle;resizable=0;points=[];" vertex="1" connectable="0" parent="j1AMkVY8RfKDoTXHwIOU-222">
          <mxGeometry x="-0.2654" y="-1" relative="1" as="geometry">
            <mxPoint x="6" y="-1" as="offset" />
          </mxGeometry>
        </mxCell>
        <mxCell id="j1AMkVY8RfKDoTXHwIOU-224" value="" style="endArrow=none;html=1;rounded=0;" edge="1" parent="j1AMkVY8RfKDoTXHwIOU-220">
          <mxGeometry width="50" height="50" relative="1" as="geometry">
            <mxPoint x="50" y="20" as="sourcePoint" />
            <mxPoint x="50" as="targetPoint" />
          </mxGeometry>
        </mxCell>
        <mxCell id="j1AMkVY8RfKDoTXHwIOU-225" value="" style="group" vertex="1" connectable="0" parent="1">
          <mxGeometry x="1649" y="1263" width="80" height="20" as="geometry" />
        </mxCell>
        <mxCell id="j1AMkVY8RfKDoTXHwIOU-226" value="" style="endArrow=none;html=1;rounded=0;" edge="1" parent="j1AMkVY8RfKDoTXHwIOU-225">
          <mxGeometry width="50" height="50" relative="1" as="geometry">
            <mxPoint y="20" as="sourcePoint" />
            <mxPoint as="targetPoint" />
          </mxGeometry>
        </mxCell>
        <mxCell id="j1AMkVY8RfKDoTXHwIOU-227" value="" style="endArrow=classic;startArrow=classic;html=1;rounded=0;" edge="1" parent="j1AMkVY8RfKDoTXHwIOU-225">
          <mxGeometry width="50" height="50" relative="1" as="geometry">
            <mxPoint y="10" as="sourcePoint" />
            <mxPoint x="80" y="10" as="targetPoint" />
          </mxGeometry>
        </mxCell>
        <mxCell id="j1AMkVY8RfKDoTXHwIOU-228" value="{50..100ms}" style="edgeLabel;html=1;align=center;verticalAlign=middle;resizable=0;points=[];" vertex="1" connectable="0" parent="j1AMkVY8RfKDoTXHwIOU-227">
          <mxGeometry x="-0.2654" y="-1" relative="1" as="geometry">
            <mxPoint x="11" y="-1" as="offset" />
          </mxGeometry>
        </mxCell>
        <mxCell id="j1AMkVY8RfKDoTXHwIOU-229" value="" style="endArrow=none;html=1;rounded=0;" edge="1" parent="j1AMkVY8RfKDoTXHwIOU-225">
          <mxGeometry width="50" height="50" relative="1" as="geometry">
            <mxPoint x="80" y="20" as="sourcePoint" />
            <mxPoint x="80" as="targetPoint" />
          </mxGeometry>
        </mxCell>
        <mxCell id="j1AMkVY8RfKDoTXHwIOU-230" value="" style="group" vertex="1" connectable="0" parent="1">
          <mxGeometry x="1729" y="1323" width="50" height="20" as="geometry" />
        </mxCell>
        <mxCell id="j1AMkVY8RfKDoTXHwIOU-231" value="" style="endArrow=none;html=1;rounded=0;" edge="1" parent="j1AMkVY8RfKDoTXHwIOU-230">
          <mxGeometry width="50" height="50" relative="1" as="geometry">
            <mxPoint y="20" as="sourcePoint" />
            <mxPoint as="targetPoint" />
          </mxGeometry>
        </mxCell>
        <mxCell id="j1AMkVY8RfKDoTXHwIOU-232" value="" style="endArrow=classic;startArrow=classic;html=1;rounded=0;" edge="1" parent="j1AMkVY8RfKDoTXHwIOU-230">
          <mxGeometry width="50" height="50" relative="1" as="geometry">
            <mxPoint y="10" as="sourcePoint" />
            <mxPoint x="50" y="10" as="targetPoint" />
          </mxGeometry>
        </mxCell>
        <mxCell id="j1AMkVY8RfKDoTXHwIOU-233" value="&lt;span style=&quot;color: rgb(0, 0, 0); font-family: Helvetica; font-size: 11px; font-style: normal; font-variant-ligatures: normal; font-variant-caps: normal; font-weight: 400; letter-spacing: normal; orphans: 2; text-align: center; text-indent: 0px; text-transform: none; widows: 2; word-spacing: 0px; -webkit-text-stroke-width: 0px; background-color: rgb(255, 255, 255); text-decoration-thickness: initial; text-decoration-style: initial; text-decoration-color: initial; float: none; display: inline !important;&quot;&gt;{50ms}&lt;/span&gt;" style="edgeLabel;html=1;align=center;verticalAlign=middle;resizable=0;points=[];" vertex="1" connectable="0" parent="j1AMkVY8RfKDoTXHwIOU-232">
          <mxGeometry x="-0.2654" y="-1" relative="1" as="geometry">
            <mxPoint x="6" y="-1" as="offset" />
          </mxGeometry>
        </mxCell>
        <mxCell id="j1AMkVY8RfKDoTXHwIOU-234" value="" style="endArrow=none;html=1;rounded=0;" edge="1" parent="j1AMkVY8RfKDoTXHwIOU-230">
          <mxGeometry width="50" height="50" relative="1" as="geometry">
            <mxPoint x="50" y="20" as="sourcePoint" />
            <mxPoint x="50" as="targetPoint" />
          </mxGeometry>
        </mxCell>
        <mxCell id="j1AMkVY8RfKDoTXHwIOU-235" value="" style="endArrow=none;html=1;rounded=0;" edge="1" parent="j1AMkVY8RfKDoTXHwIOU-230">
          <mxGeometry width="50" height="50" relative="1" as="geometry">
            <mxPoint x="50" y="20" as="sourcePoint" />
            <mxPoint y="20" as="targetPoint" />
          </mxGeometry>
        </mxCell>
        <mxCell id="j1AMkVY8RfKDoTXHwIOU-236" value="" style="endArrow=none;html=1;rounded=0;" edge="1" parent="1">
          <mxGeometry width="50" height="50" relative="1" as="geometry">
            <mxPoint x="1779" y="1153" as="sourcePoint" />
            <mxPoint x="1779" y="1343" as="targetPoint" />
          </mxGeometry>
        </mxCell>
        <mxCell id="j1AMkVY8RfKDoTXHwIOU-237" value="" style="endArrow=none;html=1;rounded=0;" edge="1" parent="1">
          <mxGeometry width="50" height="50" relative="1" as="geometry">
            <mxPoint x="1779" y="1153" as="sourcePoint" />
            <mxPoint x="1878" y="1153" as="targetPoint" />
          </mxGeometry>
        </mxCell>
        <mxCell id="j1AMkVY8RfKDoTXHwIOU-238" value="nieaktywny&lt;br&gt;&lt;br&gt;&lt;br&gt;otrzymuje polecenie do wyswietlenia grafika&lt;br&gt;&lt;br&gt;&lt;br&gt;szuka grafiku pracy&lt;br&gt;&lt;br&gt;&lt;br&gt;wysyła grafik do kierowcy" style="text;html=1;strokeColor=none;fillColor=none;align=center;verticalAlign=middle;whiteSpace=wrap;rounded=0;" vertex="1" parent="1">
          <mxGeometry x="1389" y="1138" width="80" height="220" as="geometry" />
        </mxCell>
        <mxCell id="j1AMkVY8RfKDoTXHwIOU-239" value="" style="endArrow=none;html=1;rounded=0;" edge="1" parent="1">
          <mxGeometry width="50" height="50" relative="1" as="geometry">
            <mxPoint x="1649" y="1213" as="sourcePoint" />
            <mxPoint x="1649" y="1283" as="targetPoint" />
          </mxGeometry>
        </mxCell>
        <mxCell id="j1AMkVY8RfKDoTXHwIOU-240" value="" style="rounded=0;whiteSpace=wrap;html=1;" vertex="1" parent="1">
          <mxGeometry x="1338" y="1518" width="600" height="142" as="geometry" />
        </mxCell>
        <mxCell id="j1AMkVY8RfKDoTXHwIOU-241" value="&lt;font style=&quot;font-size: 15px;&quot;&gt;&lt;span style=&quot;color: rgb(0, 0, 0); font-family: Helvetica; font-style: normal; font-variant-ligatures: normal; font-variant-caps: normal; font-weight: 400; letter-spacing: normal; orphans: 2; text-align: center; text-indent: 0px; text-transform: none; widows: 2; word-spacing: 0px; -webkit-text-stroke-width: 0px; background-color: rgb(251, 251, 251); text-decoration-thickness: initial; text-decoration-style: initial; text-decoration-color: initial; float: none; display: inline !important;&quot;&gt;kierowca&lt;/span&gt;&lt;br&gt;&lt;/font&gt;" style="text;html=1;strokeColor=none;fillColor=none;align=center;verticalAlign=middle;whiteSpace=wrap;rounded=0;rotation=270;" vertex="1" parent="1">
          <mxGeometry x="1309" y="1574" width="110" height="30" as="geometry" />
        </mxCell>
        <mxCell id="j1AMkVY8RfKDoTXHwIOU-242" value="" style="endArrow=none;html=1;rounded=0;" edge="1" parent="1">
          <mxGeometry width="50" height="50" relative="1" as="geometry">
            <mxPoint x="1099.57" y="660" as="sourcePoint" />
            <mxPoint x="1099.57" y="630" as="targetPoint" />
          </mxGeometry>
        </mxCell>
        <mxCell id="j1AMkVY8RfKDoTXHwIOU-243" value="" style="endArrow=none;html=1;rounded=0;" edge="1" parent="1">
          <mxGeometry width="50" height="50" relative="1" as="geometry">
            <mxPoint x="1139.57" y="660" as="sourcePoint" />
            <mxPoint x="1139.57" y="630" as="targetPoint" />
          </mxGeometry>
        </mxCell>
        <mxCell id="j1AMkVY8RfKDoTXHwIOU-244" value="" style="endArrow=none;html=1;rounded=0;" edge="1" parent="1">
          <mxGeometry width="50" height="50" relative="1" as="geometry">
            <mxPoint x="1179.57" y="660" as="sourcePoint" />
            <mxPoint x="1179.57" y="630" as="targetPoint" />
          </mxGeometry>
        </mxCell>
        <mxCell id="j1AMkVY8RfKDoTXHwIOU-245" value="" style="endArrow=none;html=1;rounded=0;" edge="1" parent="1">
          <mxGeometry width="50" height="50" relative="1" as="geometry">
            <mxPoint x="1219.57" y="660" as="sourcePoint" />
            <mxPoint x="1219.57" y="630" as="targetPoint" />
          </mxGeometry>
        </mxCell>
        <mxCell id="j1AMkVY8RfKDoTXHwIOU-246" value="" style="endArrow=none;html=1;rounded=0;" edge="1" parent="1">
          <mxGeometry width="50" height="50" relative="1" as="geometry">
            <mxPoint x="1259.57" y="660" as="sourcePoint" />
            <mxPoint x="1259.57" y="630" as="targetPoint" />
          </mxGeometry>
        </mxCell>
        <mxCell id="j1AMkVY8RfKDoTXHwIOU-247" value="" style="endArrow=none;html=1;rounded=0;" edge="1" parent="1">
          <mxGeometry width="50" height="50" relative="1" as="geometry">
            <mxPoint x="1299.57" y="660" as="sourcePoint" />
            <mxPoint x="1299.57" y="630" as="targetPoint" />
          </mxGeometry>
        </mxCell>
        <mxCell id="j1AMkVY8RfKDoTXHwIOU-248" value="" style="endArrow=none;html=1;rounded=0;" edge="1" parent="1">
          <mxGeometry width="50" height="50" relative="1" as="geometry">
            <mxPoint x="1339.57" y="660" as="sourcePoint" />
            <mxPoint x="1339.57" y="630" as="targetPoint" />
          </mxGeometry>
        </mxCell>
        <mxCell id="j1AMkVY8RfKDoTXHwIOU-249" value="" style="endArrow=none;html=1;rounded=0;" edge="1" parent="1">
          <mxGeometry width="50" height="50" relative="1" as="geometry">
            <mxPoint x="1379.57" y="660" as="sourcePoint" />
            <mxPoint x="1379.57" y="630" as="targetPoint" />
          </mxGeometry>
        </mxCell>
        <mxCell id="j1AMkVY8RfKDoTXHwIOU-250" value="" style="endArrow=none;html=1;rounded=0;" edge="1" parent="1">
          <mxGeometry width="50" height="50" relative="1" as="geometry">
            <mxPoint x="779.5699999999999" y="660" as="sourcePoint" />
            <mxPoint x="779.5699999999999" y="630" as="targetPoint" />
          </mxGeometry>
        </mxCell>
        <mxCell id="j1AMkVY8RfKDoTXHwIOU-251" value="" style="endArrow=none;html=1;rounded=0;" edge="1" parent="1">
          <mxGeometry width="50" height="50" relative="1" as="geometry">
            <mxPoint x="819.5699999999999" y="660" as="sourcePoint" />
            <mxPoint x="819.5699999999999" y="630" as="targetPoint" />
          </mxGeometry>
        </mxCell>
        <mxCell id="j1AMkVY8RfKDoTXHwIOU-252" value="" style="endArrow=none;html=1;rounded=0;" edge="1" parent="1">
          <mxGeometry width="50" height="50" relative="1" as="geometry">
            <mxPoint x="859.5699999999999" y="660" as="sourcePoint" />
            <mxPoint x="859.5699999999999" y="630" as="targetPoint" />
          </mxGeometry>
        </mxCell>
        <mxCell id="j1AMkVY8RfKDoTXHwIOU-253" value="" style="endArrow=none;html=1;rounded=0;" edge="1" parent="1">
          <mxGeometry width="50" height="50" relative="1" as="geometry">
            <mxPoint x="899.5699999999999" y="660" as="sourcePoint" />
            <mxPoint x="899.5699999999999" y="630" as="targetPoint" />
          </mxGeometry>
        </mxCell>
        <mxCell id="j1AMkVY8RfKDoTXHwIOU-254" value="" style="endArrow=none;html=1;rounded=0;" edge="1" parent="1">
          <mxGeometry width="50" height="50" relative="1" as="geometry">
            <mxPoint x="939.5699999999999" y="660" as="sourcePoint" />
            <mxPoint x="939.5699999999999" y="630" as="targetPoint" />
          </mxGeometry>
        </mxCell>
        <mxCell id="j1AMkVY8RfKDoTXHwIOU-255" value="" style="endArrow=none;html=1;rounded=0;" edge="1" parent="1">
          <mxGeometry width="50" height="50" relative="1" as="geometry">
            <mxPoint x="979.5699999999999" y="660" as="sourcePoint" />
            <mxPoint x="979.5699999999999" y="630" as="targetPoint" />
          </mxGeometry>
        </mxCell>
        <mxCell id="j1AMkVY8RfKDoTXHwIOU-256" value="" style="endArrow=none;html=1;rounded=0;" edge="1" parent="1">
          <mxGeometry width="50" height="50" relative="1" as="geometry">
            <mxPoint x="1019.5699999999999" y="660" as="sourcePoint" />
            <mxPoint x="1019.5699999999999" y="630" as="targetPoint" />
          </mxGeometry>
        </mxCell>
        <mxCell id="j1AMkVY8RfKDoTXHwIOU-257" value="" style="endArrow=none;html=1;rounded=0;" edge="1" parent="1">
          <mxGeometry width="50" height="50" relative="1" as="geometry">
            <mxPoint x="1059.57" y="660" as="sourcePoint" />
            <mxPoint x="1059.57" y="630" as="targetPoint" />
          </mxGeometry>
        </mxCell>
        <mxCell id="j1AMkVY8RfKDoTXHwIOU-258" value="kroki" style="text;html=1;align=center;verticalAlign=middle;resizable=0;points=[];autosize=1;strokeColor=none;fillColor=none;" vertex="1" parent="1">
          <mxGeometry x="729.5699999999999" y="630" width="50" height="30" as="geometry" />
        </mxCell>
        <mxCell id="j1AMkVY8RfKDoTXHwIOU-259" value="" style="endArrow=none;html=1;rounded=0;" edge="1" parent="1">
          <mxGeometry width="50" height="50" relative="1" as="geometry">
            <mxPoint x="1120" y="1518" as="sourcePoint" />
            <mxPoint x="1120" y="1488" as="targetPoint" />
          </mxGeometry>
        </mxCell>
        <mxCell id="j1AMkVY8RfKDoTXHwIOU-260" value="" style="endArrow=none;html=1;rounded=0;" edge="1" parent="1">
          <mxGeometry width="50" height="50" relative="1" as="geometry">
            <mxPoint x="1160" y="1518" as="sourcePoint" />
            <mxPoint x="1160" y="1488" as="targetPoint" />
          </mxGeometry>
        </mxCell>
        <mxCell id="j1AMkVY8RfKDoTXHwIOU-261" value="" style="endArrow=none;html=1;rounded=0;" edge="1" parent="1">
          <mxGeometry width="50" height="50" relative="1" as="geometry">
            <mxPoint x="1200" y="1518" as="sourcePoint" />
            <mxPoint x="1200" y="1488" as="targetPoint" />
          </mxGeometry>
        </mxCell>
        <mxCell id="j1AMkVY8RfKDoTXHwIOU-262" value="" style="endArrow=none;html=1;rounded=0;" edge="1" parent="1">
          <mxGeometry width="50" height="50" relative="1" as="geometry">
            <mxPoint x="1240" y="1518" as="sourcePoint" />
            <mxPoint x="1240" y="1488" as="targetPoint" />
          </mxGeometry>
        </mxCell>
        <mxCell id="j1AMkVY8RfKDoTXHwIOU-263" value="" style="endArrow=none;html=1;rounded=0;" edge="1" parent="1">
          <mxGeometry width="50" height="50" relative="1" as="geometry">
            <mxPoint x="800" y="1518" as="sourcePoint" />
            <mxPoint x="800" y="1488" as="targetPoint" />
          </mxGeometry>
        </mxCell>
        <mxCell id="j1AMkVY8RfKDoTXHwIOU-264" value="" style="endArrow=none;html=1;rounded=0;" edge="1" parent="1">
          <mxGeometry width="50" height="50" relative="1" as="geometry">
            <mxPoint x="840" y="1518" as="sourcePoint" />
            <mxPoint x="840" y="1488" as="targetPoint" />
          </mxGeometry>
        </mxCell>
        <mxCell id="j1AMkVY8RfKDoTXHwIOU-265" value="" style="endArrow=none;html=1;rounded=0;" edge="1" parent="1">
          <mxGeometry width="50" height="50" relative="1" as="geometry">
            <mxPoint x="880" y="1518" as="sourcePoint" />
            <mxPoint x="880" y="1488" as="targetPoint" />
          </mxGeometry>
        </mxCell>
        <mxCell id="j1AMkVY8RfKDoTXHwIOU-266" value="" style="endArrow=none;html=1;rounded=0;" edge="1" parent="1">
          <mxGeometry width="50" height="50" relative="1" as="geometry">
            <mxPoint x="920" y="1518" as="sourcePoint" />
            <mxPoint x="920" y="1488" as="targetPoint" />
          </mxGeometry>
        </mxCell>
        <mxCell id="j1AMkVY8RfKDoTXHwIOU-267" value="" style="endArrow=none;html=1;rounded=0;" edge="1" parent="1">
          <mxGeometry width="50" height="50" relative="1" as="geometry">
            <mxPoint x="960" y="1518" as="sourcePoint" />
            <mxPoint x="960" y="1488" as="targetPoint" />
          </mxGeometry>
        </mxCell>
        <mxCell id="j1AMkVY8RfKDoTXHwIOU-268" value="" style="endArrow=none;html=1;rounded=0;" edge="1" parent="1">
          <mxGeometry width="50" height="50" relative="1" as="geometry">
            <mxPoint x="1000" y="1518" as="sourcePoint" />
            <mxPoint x="1000" y="1488" as="targetPoint" />
          </mxGeometry>
        </mxCell>
        <mxCell id="j1AMkVY8RfKDoTXHwIOU-269" value="" style="endArrow=none;html=1;rounded=0;" edge="1" parent="1">
          <mxGeometry width="50" height="50" relative="1" as="geometry">
            <mxPoint x="1040" y="1518" as="sourcePoint" />
            <mxPoint x="1040" y="1488" as="targetPoint" />
          </mxGeometry>
        </mxCell>
        <mxCell id="j1AMkVY8RfKDoTXHwIOU-270" value="" style="endArrow=none;html=1;rounded=0;" edge="1" parent="1">
          <mxGeometry width="50" height="50" relative="1" as="geometry">
            <mxPoint x="1080" y="1518" as="sourcePoint" />
            <mxPoint x="1080" y="1488" as="targetPoint" />
          </mxGeometry>
        </mxCell>
        <mxCell id="j1AMkVY8RfKDoTXHwIOU-271" value="kroki" style="text;html=1;align=center;verticalAlign=middle;resizable=0;points=[];autosize=1;strokeColor=none;fillColor=none;" vertex="1" parent="1">
          <mxGeometry x="750" y="1488" width="50" height="30" as="geometry" />
        </mxCell>
        <mxCell id="j1AMkVY8RfKDoTXHwIOU-272" value="" style="endArrow=none;html=1;rounded=0;" edge="1" parent="1">
          <mxGeometry width="50" height="50" relative="1" as="geometry">
            <mxPoint x="707" y="1423" as="sourcePoint" />
            <mxPoint x="1227" y="1423" as="targetPoint" />
            <Array as="points">
              <mxPoint x="797" y="1423" />
              <mxPoint x="817" y="1443" />
              <mxPoint x="1117" y="1443" />
              <mxPoint x="1137" y="1423" />
            </Array>
          </mxGeometry>
        </mxCell>
        <mxCell id="j1AMkVY8RfKDoTXHwIOU-273" value="" style="endArrow=none;html=1;rounded=0;" edge="1" parent="1">
          <mxGeometry width="50" height="50" relative="1" as="geometry">
            <mxPoint x="707" y="1443" as="sourcePoint" />
            <mxPoint x="1227" y="1443" as="targetPoint" />
            <Array as="points">
              <mxPoint x="797" y="1443" />
              <mxPoint x="817" y="1423" />
              <mxPoint x="1117" y="1423" />
              <mxPoint x="1137" y="1443" />
            </Array>
          </mxGeometry>
        </mxCell>
        <mxCell id="j1AMkVY8RfKDoTXHwIOU-274" value="oczekuje" style="text;html=1;strokeColor=none;fillColor=none;align=center;verticalAlign=middle;whiteSpace=wrap;rounded=0;" vertex="1" parent="1">
          <mxGeometry x="944" y="1418" width="60" height="30" as="geometry" />
        </mxCell>
        <mxCell id="j1AMkVY8RfKDoTXHwIOU-275" value="nieaktywny" style="text;html=1;strokeColor=none;fillColor=none;align=center;verticalAlign=middle;whiteSpace=wrap;rounded=0;" vertex="1" parent="1">
          <mxGeometry x="724" y="1418" width="60" height="30" as="geometry" />
        </mxCell>
        <mxCell id="j1AMkVY8RfKDoTXHwIOU-276" value="patrzy" style="text;html=1;strokeColor=none;fillColor=none;align=center;verticalAlign=middle;whiteSpace=wrap;rounded=0;" vertex="1" parent="1">
          <mxGeometry x="1154" y="1418" width="60" height="30" as="geometry" />
        </mxCell>
        <mxCell id="j1AMkVY8RfKDoTXHwIOU-277" value="" style="endArrow=none;html=1;rounded=0;" edge="1" parent="1">
          <mxGeometry width="50" height="50" relative="1" as="geometry">
            <mxPoint x="1389" y="1579" as="sourcePoint" />
            <mxPoint x="1909" y="1579" as="targetPoint" />
            <Array as="points">
              <mxPoint x="1479" y="1579" />
              <mxPoint x="1499" y="1599" />
              <mxPoint x="1799" y="1599" />
              <mxPoint x="1819" y="1579" />
            </Array>
          </mxGeometry>
        </mxCell>
        <mxCell id="j1AMkVY8RfKDoTXHwIOU-278" value="" style="endArrow=none;html=1;rounded=0;" edge="1" parent="1">
          <mxGeometry width="50" height="50" relative="1" as="geometry">
            <mxPoint x="1389" y="1599" as="sourcePoint" />
            <mxPoint x="1909" y="1599" as="targetPoint" />
            <Array as="points">
              <mxPoint x="1479" y="1599" />
              <mxPoint x="1499" y="1579" />
              <mxPoint x="1799" y="1579" />
              <mxPoint x="1819" y="1599" />
            </Array>
          </mxGeometry>
        </mxCell>
        <mxCell id="j1AMkVY8RfKDoTXHwIOU-279" value="oczekuje" style="text;html=1;strokeColor=none;fillColor=none;align=center;verticalAlign=middle;whiteSpace=wrap;rounded=0;" vertex="1" parent="1">
          <mxGeometry x="1626" y="1574" width="60" height="30" as="geometry" />
        </mxCell>
        <mxCell id="j1AMkVY8RfKDoTXHwIOU-280" value="nieaktywny" style="text;html=1;strokeColor=none;fillColor=none;align=center;verticalAlign=middle;whiteSpace=wrap;rounded=0;" vertex="1" parent="1">
          <mxGeometry x="1406" y="1574" width="60" height="30" as="geometry" />
        </mxCell>
        <mxCell id="j1AMkVY8RfKDoTXHwIOU-281" value="patrzy" style="text;html=1;strokeColor=none;fillColor=none;align=center;verticalAlign=middle;whiteSpace=wrap;rounded=0;" vertex="1" parent="1">
          <mxGeometry x="1836" y="1574" width="60" height="30" as="geometry" />
        </mxCell>
        <mxCell id="j1AMkVY8RfKDoTXHwIOU-282" value="" style="endArrow=none;html=1;rounded=0;" edge="1" parent="1">
          <mxGeometry width="50" height="50" relative="1" as="geometry">
            <mxPoint x="1717.83" y="1670" as="sourcePoint" />
            <mxPoint x="1717.83" y="1640" as="targetPoint" />
          </mxGeometry>
        </mxCell>
        <mxCell id="j1AMkVY8RfKDoTXHwIOU-283" value="" style="endArrow=none;html=1;rounded=0;" edge="1" parent="1">
          <mxGeometry width="50" height="50" relative="1" as="geometry">
            <mxPoint x="1757.83" y="1670" as="sourcePoint" />
            <mxPoint x="1757.83" y="1640" as="targetPoint" />
          </mxGeometry>
        </mxCell>
        <mxCell id="j1AMkVY8RfKDoTXHwIOU-284" value="" style="endArrow=none;html=1;rounded=0;" edge="1" parent="1">
          <mxGeometry width="50" height="50" relative="1" as="geometry">
            <mxPoint x="1797.83" y="1670" as="sourcePoint" />
            <mxPoint x="1797.83" y="1640" as="targetPoint" />
          </mxGeometry>
        </mxCell>
        <mxCell id="j1AMkVY8RfKDoTXHwIOU-285" value="" style="endArrow=none;html=1;rounded=0;" edge="1" parent="1">
          <mxGeometry width="50" height="50" relative="1" as="geometry">
            <mxPoint x="1837.83" y="1670" as="sourcePoint" />
            <mxPoint x="1837.83" y="1640" as="targetPoint" />
          </mxGeometry>
        </mxCell>
        <mxCell id="j1AMkVY8RfKDoTXHwIOU-286" value="" style="endArrow=none;html=1;rounded=0;" edge="1" parent="1">
          <mxGeometry width="50" height="50" relative="1" as="geometry">
            <mxPoint x="1397.83" y="1670" as="sourcePoint" />
            <mxPoint x="1397.83" y="1640" as="targetPoint" />
          </mxGeometry>
        </mxCell>
        <mxCell id="j1AMkVY8RfKDoTXHwIOU-287" value="" style="endArrow=none;html=1;rounded=0;" edge="1" parent="1">
          <mxGeometry width="50" height="50" relative="1" as="geometry">
            <mxPoint x="1437.83" y="1670" as="sourcePoint" />
            <mxPoint x="1437.83" y="1640" as="targetPoint" />
          </mxGeometry>
        </mxCell>
        <mxCell id="j1AMkVY8RfKDoTXHwIOU-288" value="" style="endArrow=none;html=1;rounded=0;" edge="1" parent="1">
          <mxGeometry width="50" height="50" relative="1" as="geometry">
            <mxPoint x="1477.83" y="1670" as="sourcePoint" />
            <mxPoint x="1477.83" y="1640" as="targetPoint" />
          </mxGeometry>
        </mxCell>
        <mxCell id="j1AMkVY8RfKDoTXHwIOU-289" value="" style="endArrow=none;html=1;rounded=0;" edge="1" parent="1">
          <mxGeometry width="50" height="50" relative="1" as="geometry">
            <mxPoint x="1517.83" y="1670" as="sourcePoint" />
            <mxPoint x="1517.83" y="1640" as="targetPoint" />
          </mxGeometry>
        </mxCell>
        <mxCell id="j1AMkVY8RfKDoTXHwIOU-290" value="" style="endArrow=none;html=1;rounded=0;" edge="1" parent="1">
          <mxGeometry width="50" height="50" relative="1" as="geometry">
            <mxPoint x="1557.83" y="1670" as="sourcePoint" />
            <mxPoint x="1557.83" y="1640" as="targetPoint" />
          </mxGeometry>
        </mxCell>
        <mxCell id="j1AMkVY8RfKDoTXHwIOU-291" value="" style="endArrow=none;html=1;rounded=0;" edge="1" parent="1">
          <mxGeometry width="50" height="50" relative="1" as="geometry">
            <mxPoint x="1597.83" y="1670" as="sourcePoint" />
            <mxPoint x="1597.83" y="1640" as="targetPoint" />
          </mxGeometry>
        </mxCell>
        <mxCell id="j1AMkVY8RfKDoTXHwIOU-292" value="" style="endArrow=none;html=1;rounded=0;" edge="1" parent="1">
          <mxGeometry width="50" height="50" relative="1" as="geometry">
            <mxPoint x="1637.83" y="1670" as="sourcePoint" />
            <mxPoint x="1637.83" y="1640" as="targetPoint" />
          </mxGeometry>
        </mxCell>
        <mxCell id="j1AMkVY8RfKDoTXHwIOU-293" value="" style="endArrow=none;html=1;rounded=0;" edge="1" parent="1">
          <mxGeometry width="50" height="50" relative="1" as="geometry">
            <mxPoint x="1677.83" y="1670" as="sourcePoint" />
            <mxPoint x="1677.83" y="1640" as="targetPoint" />
          </mxGeometry>
        </mxCell>
        <mxCell id="j1AMkVY8RfKDoTXHwIOU-294" value="kroki" style="text;html=1;align=center;verticalAlign=middle;resizable=0;points=[];autosize=1;strokeColor=none;fillColor=none;" vertex="1" parent="1">
          <mxGeometry x="1347.83" y="1640" width="50" height="30" as="geometry" />
        </mxCell>
        <mxCell id="j1AMkVY8RfKDoTXHwIOU-295" value="" style="endArrow=none;html=1;rounded=0;" edge="1" parent="1">
          <mxGeometry width="50" height="50" relative="1" as="geometry">
            <mxPoint x="1878" y="1670" as="sourcePoint" />
            <mxPoint x="1878" y="1640" as="targetPoint" />
          </mxGeometry>
        </mxCell>
        <mxCell id="j1AMkVY8RfKDoTXHwIOU-296" value="" style="endArrow=none;html=1;rounded=0;" edge="1" parent="1">
          <mxGeometry width="50" height="50" relative="1" as="geometry">
            <mxPoint x="1918" y="1670" as="sourcePoint" />
            <mxPoint x="1918" y="1640" as="targetPoint" />
          </mxGeometry>
        </mxCell>
        <mxCell id="j1AMkVY8RfKDoTXHwIOU-297" value="" style="endArrow=none;html=1;rounded=0;" edge="1" parent="1">
          <mxGeometry width="50" height="50" relative="1" as="geometry">
            <mxPoint x="1799" y="1400" as="sourcePoint" />
            <mxPoint x="1799" y="1370" as="targetPoint" />
          </mxGeometry>
        </mxCell>
        <mxCell id="j1AMkVY8RfKDoTXHwIOU-298" value="" style="endArrow=none;html=1;rounded=0;" edge="1" parent="1">
          <mxGeometry width="50" height="50" relative="1" as="geometry">
            <mxPoint x="1839" y="1400" as="sourcePoint" />
            <mxPoint x="1839" y="1370" as="targetPoint" />
          </mxGeometry>
        </mxCell>
        <mxCell id="j1AMkVY8RfKDoTXHwIOU-299" value="" style="endArrow=none;html=1;rounded=0;" edge="1" parent="1">
          <mxGeometry width="50" height="50" relative="1" as="geometry">
            <mxPoint x="1879" y="1400" as="sourcePoint" />
            <mxPoint x="1879" y="1370" as="targetPoint" />
          </mxGeometry>
        </mxCell>
        <mxCell id="j1AMkVY8RfKDoTXHwIOU-300" value="" style="endArrow=none;html=1;rounded=0;" edge="1" parent="1">
          <mxGeometry width="50" height="50" relative="1" as="geometry">
            <mxPoint x="1479" y="1400" as="sourcePoint" />
            <mxPoint x="1479" y="1370" as="targetPoint" />
          </mxGeometry>
        </mxCell>
        <mxCell id="j1AMkVY8RfKDoTXHwIOU-301" value="" style="endArrow=none;html=1;rounded=0;" edge="1" parent="1">
          <mxGeometry width="50" height="50" relative="1" as="geometry">
            <mxPoint x="1519" y="1400" as="sourcePoint" />
            <mxPoint x="1519" y="1370" as="targetPoint" />
          </mxGeometry>
        </mxCell>
        <mxCell id="j1AMkVY8RfKDoTXHwIOU-302" value="" style="endArrow=none;html=1;rounded=0;" edge="1" parent="1">
          <mxGeometry width="50" height="50" relative="1" as="geometry">
            <mxPoint x="1559" y="1400" as="sourcePoint" />
            <mxPoint x="1559" y="1370" as="targetPoint" />
          </mxGeometry>
        </mxCell>
        <mxCell id="j1AMkVY8RfKDoTXHwIOU-303" value="" style="endArrow=none;html=1;rounded=0;" edge="1" parent="1">
          <mxGeometry width="50" height="50" relative="1" as="geometry">
            <mxPoint x="1599" y="1400" as="sourcePoint" />
            <mxPoint x="1599" y="1370" as="targetPoint" />
          </mxGeometry>
        </mxCell>
        <mxCell id="j1AMkVY8RfKDoTXHwIOU-304" value="" style="endArrow=none;html=1;rounded=0;" edge="1" parent="1">
          <mxGeometry width="50" height="50" relative="1" as="geometry">
            <mxPoint x="1639" y="1400" as="sourcePoint" />
            <mxPoint x="1639" y="1370" as="targetPoint" />
          </mxGeometry>
        </mxCell>
        <mxCell id="j1AMkVY8RfKDoTXHwIOU-305" value="" style="endArrow=none;html=1;rounded=0;" edge="1" parent="1">
          <mxGeometry width="50" height="50" relative="1" as="geometry">
            <mxPoint x="1679" y="1400" as="sourcePoint" />
            <mxPoint x="1679" y="1370" as="targetPoint" />
          </mxGeometry>
        </mxCell>
        <mxCell id="j1AMkVY8RfKDoTXHwIOU-306" value="" style="endArrow=none;html=1;rounded=0;" edge="1" parent="1">
          <mxGeometry width="50" height="50" relative="1" as="geometry">
            <mxPoint x="1719" y="1400" as="sourcePoint" />
            <mxPoint x="1719" y="1370" as="targetPoint" />
          </mxGeometry>
        </mxCell>
        <mxCell id="j1AMkVY8RfKDoTXHwIOU-307" value="" style="endArrow=none;html=1;rounded=0;" edge="1" parent="1">
          <mxGeometry width="50" height="50" relative="1" as="geometry">
            <mxPoint x="1759" y="1400" as="sourcePoint" />
            <mxPoint x="1759" y="1370" as="targetPoint" />
          </mxGeometry>
        </mxCell>
        <mxCell id="j1AMkVY8RfKDoTXHwIOU-308" value="kroki" style="text;html=1;align=center;verticalAlign=middle;resizable=0;points=[];autosize=1;strokeColor=none;fillColor=none;" vertex="1" parent="1">
          <mxGeometry x="1429" y="1370" width="50" height="30" as="geometry" />
        </mxCell>
        <mxCell id="j1AMkVY8RfKDoTXHwIOU-309" value="" style="endArrow=none;html=1;rounded=0;" edge="1" parent="1">
          <mxGeometry width="50" height="50" relative="1" as="geometry">
            <mxPoint x="1930" y="960" as="sourcePoint" />
            <mxPoint x="1930" y="930" as="targetPoint" />
          </mxGeometry>
        </mxCell>
        <mxCell id="j1AMkVY8RfKDoTXHwIOU-310" value="" style="endArrow=none;html=1;rounded=0;" edge="1" parent="1">
          <mxGeometry width="50" height="50" relative="1" as="geometry">
            <mxPoint x="1610" y="960" as="sourcePoint" />
            <mxPoint x="1610" y="930" as="targetPoint" />
          </mxGeometry>
        </mxCell>
        <mxCell id="j1AMkVY8RfKDoTXHwIOU-311" value="" style="endArrow=none;html=1;rounded=0;" edge="1" parent="1">
          <mxGeometry width="50" height="50" relative="1" as="geometry">
            <mxPoint x="1650" y="960" as="sourcePoint" />
            <mxPoint x="1650" y="930" as="targetPoint" />
          </mxGeometry>
        </mxCell>
        <mxCell id="j1AMkVY8RfKDoTXHwIOU-312" value="" style="endArrow=none;html=1;rounded=0;" edge="1" parent="1">
          <mxGeometry width="50" height="50" relative="1" as="geometry">
            <mxPoint x="1690" y="960" as="sourcePoint" />
            <mxPoint x="1690" y="930" as="targetPoint" />
          </mxGeometry>
        </mxCell>
        <mxCell id="j1AMkVY8RfKDoTXHwIOU-313" value="" style="endArrow=none;html=1;rounded=0;" edge="1" parent="1">
          <mxGeometry width="50" height="50" relative="1" as="geometry">
            <mxPoint x="1730" y="960" as="sourcePoint" />
            <mxPoint x="1730" y="930" as="targetPoint" />
          </mxGeometry>
        </mxCell>
        <mxCell id="j1AMkVY8RfKDoTXHwIOU-314" value="" style="endArrow=none;html=1;rounded=0;" edge="1" parent="1">
          <mxGeometry width="50" height="50" relative="1" as="geometry">
            <mxPoint x="1770" y="960" as="sourcePoint" />
            <mxPoint x="1770" y="930" as="targetPoint" />
          </mxGeometry>
        </mxCell>
        <mxCell id="j1AMkVY8RfKDoTXHwIOU-315" value="" style="endArrow=none;html=1;rounded=0;" edge="1" parent="1">
          <mxGeometry width="50" height="50" relative="1" as="geometry">
            <mxPoint x="1810" y="960" as="sourcePoint" />
            <mxPoint x="1810" y="930" as="targetPoint" />
          </mxGeometry>
        </mxCell>
        <mxCell id="j1AMkVY8RfKDoTXHwIOU-316" value="" style="endArrow=none;html=1;rounded=0;" edge="1" parent="1">
          <mxGeometry width="50" height="50" relative="1" as="geometry">
            <mxPoint x="1850" y="960" as="sourcePoint" />
            <mxPoint x="1850" y="930" as="targetPoint" />
          </mxGeometry>
        </mxCell>
        <mxCell id="j1AMkVY8RfKDoTXHwIOU-317" value="" style="endArrow=none;html=1;rounded=0;" edge="1" parent="1">
          <mxGeometry width="50" height="50" relative="1" as="geometry">
            <mxPoint x="1890" y="960" as="sourcePoint" />
            <mxPoint x="1890" y="930" as="targetPoint" />
          </mxGeometry>
        </mxCell>
        <mxCell id="j1AMkVY8RfKDoTXHwIOU-318" value="kroki" style="text;html=1;align=center;verticalAlign=middle;resizable=0;points=[];autosize=1;strokeColor=none;fillColor=none;" vertex="1" parent="1">
          <mxGeometry x="1560" y="930" width="50" height="30" as="geometry" />
        </mxCell>
        <mxCell id="j1AMkVY8RfKDoTXHwIOU-319" value="" style="endArrow=none;html=1;rounded=0;" edge="1" parent="1">
          <mxGeometry width="50" height="50" relative="1" as="geometry">
            <mxPoint x="1930" y="570" as="sourcePoint" />
            <mxPoint x="1930" y="540" as="targetPoint" />
          </mxGeometry>
        </mxCell>
        <mxCell id="j1AMkVY8RfKDoTXHwIOU-320" value="" style="endArrow=none;html=1;rounded=0;" edge="1" parent="1">
          <mxGeometry width="50" height="50" relative="1" as="geometry">
            <mxPoint x="1970" y="570" as="sourcePoint" />
            <mxPoint x="1970" y="540" as="targetPoint" />
          </mxGeometry>
        </mxCell>
        <mxCell id="j1AMkVY8RfKDoTXHwIOU-321" value="" style="endArrow=none;html=1;rounded=0;" edge="1" parent="1">
          <mxGeometry width="50" height="50" relative="1" as="geometry">
            <mxPoint x="2010" y="570" as="sourcePoint" />
            <mxPoint x="2010" y="540" as="targetPoint" />
          </mxGeometry>
        </mxCell>
        <mxCell id="j1AMkVY8RfKDoTXHwIOU-322" value="" style="endArrow=none;html=1;rounded=0;" edge="1" parent="1">
          <mxGeometry width="50" height="50" relative="1" as="geometry">
            <mxPoint x="2050" y="570" as="sourcePoint" />
            <mxPoint x="2050" y="540" as="targetPoint" />
          </mxGeometry>
        </mxCell>
        <mxCell id="j1AMkVY8RfKDoTXHwIOU-323" value="" style="endArrow=none;html=1;rounded=0;" edge="1" parent="1">
          <mxGeometry width="50" height="50" relative="1" as="geometry">
            <mxPoint x="2090" y="570" as="sourcePoint" />
            <mxPoint x="2090" y="540" as="targetPoint" />
          </mxGeometry>
        </mxCell>
        <mxCell id="j1AMkVY8RfKDoTXHwIOU-324" value="" style="endArrow=none;html=1;rounded=0;" edge="1" parent="1">
          <mxGeometry width="50" height="50" relative="1" as="geometry">
            <mxPoint x="2130" y="570" as="sourcePoint" />
            <mxPoint x="2130" y="540" as="targetPoint" />
          </mxGeometry>
        </mxCell>
        <mxCell id="j1AMkVY8RfKDoTXHwIOU-325" value="" style="endArrow=none;html=1;rounded=0;" edge="1" parent="1">
          <mxGeometry width="50" height="50" relative="1" as="geometry">
            <mxPoint x="1610" y="570" as="sourcePoint" />
            <mxPoint x="1610" y="540" as="targetPoint" />
          </mxGeometry>
        </mxCell>
        <mxCell id="j1AMkVY8RfKDoTXHwIOU-326" value="" style="endArrow=none;html=1;rounded=0;" edge="1" parent="1">
          <mxGeometry width="50" height="50" relative="1" as="geometry">
            <mxPoint x="1650" y="570" as="sourcePoint" />
            <mxPoint x="1650" y="540" as="targetPoint" />
          </mxGeometry>
        </mxCell>
        <mxCell id="j1AMkVY8RfKDoTXHwIOU-327" value="" style="endArrow=none;html=1;rounded=0;" edge="1" parent="1">
          <mxGeometry width="50" height="50" relative="1" as="geometry">
            <mxPoint x="1690" y="570" as="sourcePoint" />
            <mxPoint x="1690" y="540" as="targetPoint" />
          </mxGeometry>
        </mxCell>
        <mxCell id="j1AMkVY8RfKDoTXHwIOU-328" value="" style="endArrow=none;html=1;rounded=0;" edge="1" parent="1">
          <mxGeometry width="50" height="50" relative="1" as="geometry">
            <mxPoint x="1730" y="570" as="sourcePoint" />
            <mxPoint x="1730" y="540" as="targetPoint" />
          </mxGeometry>
        </mxCell>
        <mxCell id="j1AMkVY8RfKDoTXHwIOU-329" value="" style="endArrow=none;html=1;rounded=0;" edge="1" parent="1">
          <mxGeometry width="50" height="50" relative="1" as="geometry">
            <mxPoint x="1770" y="570" as="sourcePoint" />
            <mxPoint x="1770" y="540" as="targetPoint" />
          </mxGeometry>
        </mxCell>
        <mxCell id="j1AMkVY8RfKDoTXHwIOU-330" value="" style="endArrow=none;html=1;rounded=0;" edge="1" parent="1">
          <mxGeometry width="50" height="50" relative="1" as="geometry">
            <mxPoint x="1810" y="570" as="sourcePoint" />
            <mxPoint x="1810" y="540" as="targetPoint" />
          </mxGeometry>
        </mxCell>
        <mxCell id="j1AMkVY8RfKDoTXHwIOU-331" value="" style="endArrow=none;html=1;rounded=0;" edge="1" parent="1">
          <mxGeometry width="50" height="50" relative="1" as="geometry">
            <mxPoint x="1850" y="570" as="sourcePoint" />
            <mxPoint x="1850" y="540" as="targetPoint" />
          </mxGeometry>
        </mxCell>
        <mxCell id="j1AMkVY8RfKDoTXHwIOU-332" value="" style="endArrow=none;html=1;rounded=0;" edge="1" parent="1">
          <mxGeometry width="50" height="50" relative="1" as="geometry">
            <mxPoint x="1890" y="570" as="sourcePoint" />
            <mxPoint x="1890" y="540" as="targetPoint" />
          </mxGeometry>
        </mxCell>
        <mxCell id="j1AMkVY8RfKDoTXHwIOU-333" value="kroki" style="text;html=1;align=center;verticalAlign=middle;resizable=0;points=[];autosize=1;strokeColor=none;fillColor=none;" vertex="1" parent="1">
          <mxGeometry x="1560" y="540" width="50" height="30" as="geometry" />
        </mxCell>
        <mxCell id="j1AMkVY8RfKDoTXHwIOU-334" value="" style="endArrow=none;html=1;rounded=0;" edge="1" parent="1">
          <mxGeometry width="50" height="50" relative="1" as="geometry">
            <mxPoint x="1920" y="110" as="sourcePoint" />
            <mxPoint x="1920" y="80" as="targetPoint" />
          </mxGeometry>
        </mxCell>
        <mxCell id="j1AMkVY8RfKDoTXHwIOU-335" value="" style="endArrow=none;html=1;rounded=0;" edge="1" parent="1">
          <mxGeometry width="50" height="50" relative="1" as="geometry">
            <mxPoint x="1960" y="110" as="sourcePoint" />
            <mxPoint x="1960" y="80" as="targetPoint" />
          </mxGeometry>
        </mxCell>
        <mxCell id="j1AMkVY8RfKDoTXHwIOU-336" value="" style="endArrow=none;html=1;rounded=0;" edge="1" parent="1">
          <mxGeometry width="50" height="50" relative="1" as="geometry">
            <mxPoint x="2000" y="110" as="sourcePoint" />
            <mxPoint x="2000" y="80" as="targetPoint" />
          </mxGeometry>
        </mxCell>
        <mxCell id="j1AMkVY8RfKDoTXHwIOU-337" value="" style="endArrow=none;html=1;rounded=0;" edge="1" parent="1">
          <mxGeometry width="50" height="50" relative="1" as="geometry">
            <mxPoint x="2040" y="110" as="sourcePoint" />
            <mxPoint x="2040" y="80" as="targetPoint" />
          </mxGeometry>
        </mxCell>
        <mxCell id="j1AMkVY8RfKDoTXHwIOU-338" value="" style="endArrow=none;html=1;rounded=0;" edge="1" parent="1">
          <mxGeometry width="50" height="50" relative="1" as="geometry">
            <mxPoint x="2080" y="110" as="sourcePoint" />
            <mxPoint x="2080" y="80" as="targetPoint" />
          </mxGeometry>
        </mxCell>
        <mxCell id="j1AMkVY8RfKDoTXHwIOU-339" value="" style="endArrow=none;html=1;rounded=0;" edge="1" parent="1">
          <mxGeometry width="50" height="50" relative="1" as="geometry">
            <mxPoint x="2120" y="110" as="sourcePoint" />
            <mxPoint x="2120" y="80" as="targetPoint" />
          </mxGeometry>
        </mxCell>
        <mxCell id="j1AMkVY8RfKDoTXHwIOU-340" value="" style="endArrow=none;html=1;rounded=0;" edge="1" parent="1">
          <mxGeometry width="50" height="50" relative="1" as="geometry">
            <mxPoint x="1600" y="110" as="sourcePoint" />
            <mxPoint x="1600" y="80" as="targetPoint" />
          </mxGeometry>
        </mxCell>
        <mxCell id="j1AMkVY8RfKDoTXHwIOU-341" value="" style="endArrow=none;html=1;rounded=0;" edge="1" parent="1">
          <mxGeometry width="50" height="50" relative="1" as="geometry">
            <mxPoint x="1640" y="110" as="sourcePoint" />
            <mxPoint x="1640" y="80" as="targetPoint" />
          </mxGeometry>
        </mxCell>
        <mxCell id="j1AMkVY8RfKDoTXHwIOU-342" value="" style="endArrow=none;html=1;rounded=0;" edge="1" parent="1">
          <mxGeometry width="50" height="50" relative="1" as="geometry">
            <mxPoint x="1680" y="110" as="sourcePoint" />
            <mxPoint x="1680" y="80" as="targetPoint" />
          </mxGeometry>
        </mxCell>
        <mxCell id="j1AMkVY8RfKDoTXHwIOU-343" value="" style="endArrow=none;html=1;rounded=0;" edge="1" parent="1">
          <mxGeometry width="50" height="50" relative="1" as="geometry">
            <mxPoint x="1720" y="110" as="sourcePoint" />
            <mxPoint x="1720" y="80" as="targetPoint" />
          </mxGeometry>
        </mxCell>
        <mxCell id="j1AMkVY8RfKDoTXHwIOU-344" value="" style="endArrow=none;html=1;rounded=0;" edge="1" parent="1">
          <mxGeometry width="50" height="50" relative="1" as="geometry">
            <mxPoint x="1760" y="110" as="sourcePoint" />
            <mxPoint x="1760" y="80" as="targetPoint" />
          </mxGeometry>
        </mxCell>
        <mxCell id="j1AMkVY8RfKDoTXHwIOU-345" value="" style="endArrow=none;html=1;rounded=0;" edge="1" parent="1">
          <mxGeometry width="50" height="50" relative="1" as="geometry">
            <mxPoint x="1800" y="110" as="sourcePoint" />
            <mxPoint x="1800" y="80" as="targetPoint" />
          </mxGeometry>
        </mxCell>
        <mxCell id="j1AMkVY8RfKDoTXHwIOU-346" value="" style="endArrow=none;html=1;rounded=0;" edge="1" parent="1">
          <mxGeometry width="50" height="50" relative="1" as="geometry">
            <mxPoint x="1840" y="110" as="sourcePoint" />
            <mxPoint x="1840" y="80" as="targetPoint" />
          </mxGeometry>
        </mxCell>
        <mxCell id="j1AMkVY8RfKDoTXHwIOU-347" value="" style="endArrow=none;html=1;rounded=0;" edge="1" parent="1">
          <mxGeometry width="50" height="50" relative="1" as="geometry">
            <mxPoint x="1880" y="110" as="sourcePoint" />
            <mxPoint x="1880" y="80" as="targetPoint" />
          </mxGeometry>
        </mxCell>
        <mxCell id="j1AMkVY8RfKDoTXHwIOU-348" value="kroki" style="text;html=1;align=center;verticalAlign=middle;resizable=0;points=[];autosize=1;strokeColor=none;fillColor=none;" vertex="1" parent="1">
          <mxGeometry x="1550" y="80" width="50" height="30" as="geometry" />
        </mxCell>
      </root>
    </mxGraphModel>
  </diagram>
</mxfile>
